<?xml version="1.0" standalone="no"?>
<!DOCTYPE svg PUBLIC "-//W3C//DTD SVG 20010904//EN"
 "http://www.w3.org/TR/2001/REC-SVG-20010904/DTD/svg10.dtd">
<svg version="1.0" xmlns="http://www.w3.org/2000/svg"
 width="1024.000000pt" height="1024.000000pt" viewBox="0 0 1024.000000 1024.000000"
 preserveAspectRatio="xMidYMid meet">

<g transform="translate(0.000000,1024.000000) scale(0.100000,-0.100000)"
fill="#000000" stroke="none">
<path d="M6489 9831 c-191 -192 -368 -289 -621 -342 -341 -71 -448 -138 -557
-350 -29 -57 -66 -122 -81 -145 -78 -112 -215 -191 -376 -214 -43 -6 -96 -14
-118 -17 l-38 -6 47 71 c42 63 79 142 70 150 -2 2 -32 -18 -67 -43 -107 -80
-212 -124 -328 -140 -45 -6 -45 -6 15 15 33 12 72 33 86 46 31 30 64 104 46
104 -7 0 -70 -20 -142 -45 -77 -26 -181 -53 -255 -65 -69 -12 -156 -28 -193
-36 -38 -8 -84 -14 -104 -14 l-36 0 7 41 c8 51 37 107 68 135 55 49 92 61 253
84 113 16 270 56 335 86 79 36 111 64 197 172 42 53 102 124 132 156 l56 60
-40 -24 c-73 -42 -102 -68 -138 -123 -43 -65 -114 -130 -133 -123 -7 3 -16 1
-19 -4 -4 -6 -11 -10 -17 -10 -21 0 203 222 264 262 34 23 117 68 183 100 105
52 114 58 75 52 -111 -17 -292 -92 -373 -156 -20 -17 -59 -58 -84 -91 -135
-176 -171 -196 -429 -232 -253 -36 -395 -87 -483 -175 -28 -28 -68 -88 -101
-150 -70 -134 -95 -158 -199 -194 -73 -25 -104 -30 -245 -37 -195 -9 -273 -33
-362 -112 -88 -76 -115 -165 -75 -245 10 -20 21 -56 25 -79 5 -36 3 -44 -15
-54 -12 -6 -33 -9 -48 -6 -16 3 -33 -1 -43 -10 -19 -17 -21 -16 -175 104 -101
79 -112 83 -259 83 l-127 0 -51 -39 c-98 -74 -103 -76 -127 -55 -12 11 -34 45
-50 77 -33 64 -32 64 -138 47 -106 -18 -123 -31 -314 -243 -37 -42 -42 -67
-26 -150 11 -63 11 -75 -5 -116 -49 -129 -51 -139 -27 -214 15 -44 38 -87 67
-122 24 -30 44 -59 44 -65 0 -5 16 -25 35 -45 l36 -35 -22 -29 -21 -29 23 -51
c17 -36 42 -65 84 -99 84 -67 118 -138 145 -302 25 -149 63 -289 75 -271 8 15
-2 256 -16 370 -5 41 -20 98 -33 127 -27 58 -18 70 20 27 112 -131 170 -235
214 -383 23 -76 62 -164 79 -174 4 -3 11 77 14 182 6 202 15 247 58 293 41 44
55 38 51 -19 -4 -50 22 -157 40 -168 6 -4 14 -1 18 6 8 14 25 126 22 150 -1 8
1 27 4 43 5 22 11 27 35 27 25 0 29 -4 29 -29 0 -66 47 -146 80 -136 22 7 63
-69 80 -146 l12 -56 82 86 c44 48 103 119 130 159 27 39 55 72 62 72 47 0 9
-91 -98 -232 -26 -34 -45 -64 -43 -66 2 -2 34 15 72 37 37 23 90 48 117 56 27
8 58 23 68 32 15 14 21 15 27 4 14 -23 42 -164 33 -170 -4 -3 -50 -37 -101
-75 l-93 -69 26 -14 c26 -14 56 -60 56 -87 0 -8 -7 -19 -16 -24 -9 -5 -42 -35
-74 -66 l-57 -57 -32 33 c-17 17 -31 35 -31 40 0 4 -4 8 -9 8 -11 0 23 -106
41 -127 9 -12 2 -24 -39 -65 l-51 -51 -26 29 c-69 78 -170 341 -200 519 -26
152 -29 149 -52 -57 -15 -136 -15 -180 -5 -325 6 -92 16 -199 23 -237 l12 -68
-32 -29 -32 -28 21 -35 c14 -24 21 -56 23 -110 2 -60 9 -88 33 -136 20 -40 26
-63 19 -70 -6 -6 -2 -18 13 -33 12 -14 27 -41 32 -62 16 -59 94 -236 160 -365
54 -107 129 -205 129 -169 0 8 -13 77 -30 152 -16 76 -30 145 -30 153 0 33 85
-10 218 -110 55 -42 105 -76 111 -76 7 0 9 13 6 35 -3 23 0 35 8 35 7 0 55
-14 107 -31 233 -74 309 -77 590 -19 107 22 199 40 204 40 6 0 4 6 -5 13 -9 7
-16 16 -15 20 1 5 -38 23 -86 41 -127 48 -190 95 -258 196 -53 79 -72 126 -72
190 -1 75 30 138 101 201 90 81 112 89 243 89 155 0 279 -21 435 -74 73 -24
133 -42 133 -40 0 2 -17 19 -37 39 -36 32 -37 34 -15 35 13 0 99 -24 190 -54
240 -78 257 -83 467 -121 175 -31 371 -54 335 -39 -88 38 -206 105 -259 147
-36 28 -127 122 -203 207 -135 151 -137 155 -113 164 32 12 31 20 -1 35 -15 6
-25 13 -23 14 2 1 117 -1 254 -4 264 -7 403 -25 645 -83 58 -14 146 -34 195
-45 240 -55 330 -85 765 -259 111 -45 220 -74 220 -59 0 3 -25 17 -56 31 -76
35 -251 164 -348 256 -95 91 -246 270 -342 405 -100 140 -176 270 -172 290 6
32 239 85 375 85 84 0 85 0 79 24 -3 12 -3 26 0 29 15 15 389 -161 496 -234
145 -98 255 -231 348 -418 45 -89 59 -165 60 -304 l0 -89 -62 -64 c-33 -35
-55 -64 -47 -64 8 0 5 -6 -8 -15 -12 -8 -39 -33 -60 -54 -52 -52 -72 -61 -145
-62 -53 0 -59 -2 -40 -11 12 -6 22 -17 22 -24 0 -8 -10 -16 -22 -18 -305 -58
-363 -60 -535 -16 -65 17 -151 46 -190 65 -65 30 -180 61 -190 51 -2 -2 14
-17 36 -32 22 -16 41 -32 41 -37 0 -4 -44 -5 -97 -2 -54 2 -186 7 -293 10
-107 3 -240 8 -295 12 l-100 6 70 -38 c116 -62 137 -72 215 -95 41 -12 82 -26
90 -30 8 -3 43 -13 78 -20 34 -8 62 -18 62 -22 0 -9 -79 -1 -125 13 -16 4 -91
15 -165 24 -176 20 -251 37 -450 101 -90 29 -166 52 -167 50 -2 -2 46 -28 106
-60 61 -31 148 -80 194 -109 47 -29 100 -60 118 -70 l33 -18 -160 -78 c-230
-113 -230 -114 -61 -106 137 6 137 5 125 -15 -7 -11 -24 -23 -38 -26 -14 -3
-92 -30 -174 -60 -145 -53 -197 -65 -119 -26 21 10 72 32 113 47 64 25 125 56
80 41 -8 -2 -46 -14 -85 -27 -38 -12 -104 -39 -145 -60 -97 -49 -210 -92 -210
-79 0 12 176 130 193 130 6 0 8 2 5 5 -2 3 -38 -6 -78 -20 -75 -26 -124 -54
-194 -112 -21 -17 -51 -35 -67 -38 -15 -4 -38 -14 -51 -24 -13 -9 -47 -30 -77
-45 -30 -16 -67 -37 -83 -49 -15 -11 -31 -17 -35 -13 -4 4 -2 11 6 15 10 7 9
9 -3 14 -19 8 -70 -50 -133 -153 -26 -41 -51 -79 -55 -85 -40 -52 -61 -75 -65
-71 -7 6 65 144 113 217 45 68 162 182 215 209 29 15 38 30 19 30 -31 0 -84
-36 -162 -109 -142 -134 -213 -239 -288 -429 -18 -46 -38 -81 -44 -79 -18 7
-7 58 25 120 17 32 29 61 26 63 -2 3 -19 -7 -36 -22 l-32 -27 7 29 c4 16 11
40 16 53 19 52 -4 29 -63 -63 -34 -53 -68 -96 -75 -96 -27 0 -46 32 -40 69 6
33 5 34 -8 18 -8 -10 -19 -51 -25 -90 -6 -40 -18 -110 -28 -157 -9 -47 -18
-107 -21 -134 -3 -31 -7 -44 -12 -35 -11 18 -34 -35 -55 -131 -16 -66 -42
-127 -51 -117 -7 7 36 304 54 372 54 200 55 206 43 218 -21 20 -35 -13 -80
-186 -38 -147 -46 -168 -76 -196 -59 -55 -91 -194 -72 -311 6 -35 0 -26 -23
40 -17 47 -36 108 -42 135 l-11 50 -18 -70 c-13 -47 -19 -108 -19 -185 -1
-114 -1 -115 -18 -85 -13 23 -17 54 -17 132 0 57 -3 96 -7 89 -5 -8 -15 -61
-24 -118 -19 -121 -48 -226 -98 -358 -42 -112 -63 -204 -71 -320 -10 -131 -70
-330 -95 -315 -17 11 -12 45 35 216 47 174 65 279 48 279 -5 0 -22 -42 -37
-93 -15 -52 -31 -100 -36 -107 -9 -15 -32 -1 -147 92 -40 32 -79 58 -87 58
-13 0 -43 47 -145 227 -41 71 -45 76 -51 53 -6 -23 -8 -21 -15 15 -4 22 -16
73 -26 114 -26 104 -25 115 19 148 108 84 148 104 233 120 193 35 280 75 415
187 85 71 116 182 79 286 -22 63 -19 76 21 95 72 34 94 31 157 -20 l57 -46 0
28 c0 21 -7 31 -28 41 -29 12 -42 48 -14 37 11 -4 13 0 8 17 -3 13 -6 29 -6
36 0 7 -8 16 -17 20 -51 21 -136 89 -154 124 -41 81 -20 137 89 235 26 23 42
42 37 43 -6 0 -42 -19 -80 -41 -135 -80 -343 -179 -389 -185 -25 -4 -46 -8
-46 -10 0 -1 9 -40 20 -86 10 -46 29 -150 40 -233 12 -82 25 -161 31 -174 14
-33 -9 -55 -83 -81 -80 -28 -177 -40 -294 -36 -99 3 -144 15 -144 40 0 7 13
31 28 52 15 21 31 44 35 51 12 19 -30 3 -58 -23 -27 -25 -52 -33 -39 -12 5 8
2 9 -12 3 -47 -19 -63 -17 -103 16 -47 39 -66 80 -76 164 -4 33 -18 81 -33
108 -22 41 -24 50 -12 71 7 14 10 36 6 49 -3 15 -1 29 7 35 19 16 64 25 92 18
20 -5 25 -12 25 -40 0 -18 -5 -47 -11 -65 -6 -18 -9 -34 -6 -37 11 -11 129 70
152 104 13 20 43 57 66 82 57 62 82 121 83 195 1 149 -97 284 -206 285 -15 0
-56 15 -90 34 -35 19 -73 37 -86 41 -22 6 -22 5 9 -45 24 -40 35 -49 50 -45
29 9 23 -8 -11 -33 -38 -29 -38 -38 4 -52 37 -12 66 -40 90 -87 33 -66 10
-116 -60 -129 -39 -7 -43 -5 -82 52 -11 17 -12 16 -6 -11 11 -49 10 -60 -5
-60 -8 0 -19 21 -27 53 -15 57 -53 136 -54 112 -3 -65 -23 -157 -39 -175 -27
-28 -96 -170 -115 -234 -9 -32 -16 -94 -17 -150 l-1 -96 -23 50 c-13 28 -24
60 -24 72 -1 12 -6 25 -12 29 -24 15 -3 -183 30 -290 30 -95 38 -146 24 -146
-3 0 -34 26 -68 58 -69 64 -185 155 -191 150 -2 -2 24 -44 57 -93 32 -50 64
-107 70 -129 10 -35 8 -41 -17 -67 -19 -20 -36 -28 -53 -27 -22 3 -26 -1 -29
-29 -3 -27 -9 -34 -58 -53 -57 -24 -63 -30 -40 -49 21 -17 68 -120 77 -168 9
-48 49 -138 74 -168 16 -20 16 -20 10 5 -13 53 -18 130 -8 130 19 0 138 -52
157 -68 27 -25 73 -121 96 -204 14 -49 24 -125 30 -233 12 -223 44 -334 153
-535 79 -146 139 -220 262 -320 235 -190 495 -299 814 -340 42 -5 124 -18 183
-28 l107 -18 178 -181 c179 -181 201 -199 366 -286 48 -26 48 -26 25 -41 -47
-31 -159 -76 -190 -77 -18 -1 -44 -4 -58 -9 l-25 -7 27 -11 c111 -45 279 -66
463 -58 119 5 155 3 169 -7 16 -12 2 -15 -105 -23 -202 -14 -373 -9 -447 14
-62 20 -132 20 -132 1 0 -5 1 -9 3 -9 2 0 45 -9 97 -21 70 -15 155 -23 325
-29 l230 -8 100 -40 c298 -121 772 -188 1300 -186 153 1 268 7 345 18 315 44
448 75 499 113 20 16 54 30 76 33 l40 5 -50 29 c-47 28 -49 30 -25 36 14 3 43
2 65 -3 22 -4 54 -11 72 -14 42 -7 231 32 307 63 54 22 64 23 130 13 39 -5
156 -9 260 -8 l189 3 28 -35 c16 -19 29 -46 29 -62 l0 -29 86 46 c225 120 385
285 372 383 -5 30 -5 30 -31 -42 -15 -42 -214 -235 -277 -269 -29 -16 -69 -32
-88 -37 -31 -7 -38 -4 -64 23 -34 36 -36 53 -5 44 64 -18 73 -18 103 7 16 13
47 35 69 47 104 57 199 150 230 223 42 101 -13 355 -135 614 -22 47 -40 95
-40 106 0 11 12 52 26 91 64 177 69 307 20 505 -19 75 -39 147 -45 161 -8 22
-10 22 -11 5 l-1 -20 -9 20 c-12 28 -12 37 0 30 13 -8 13 5 0 25 -9 13 -10 13
-10 0 -2 -24 -22 32 -25 65 -2 40 -31 136 -62 213 -14 34 -24 65 -21 68 8 8
62 -64 90 -121 14 -27 35 -79 46 -115 22 -65 86 -324 101 -407 16 -84 -21
-424 -49 -458 -14 -16 7 -100 48 -201 65 -156 123 -345 129 -414 7 -83 19 -98
28 -36 10 63 0 111 -62 289 -31 87 -52 161 -49 164 19 19 186 -102 230 -166
31 -45 95 -118 96 -109 0 4 -6 13 -13 20 -28 30 -88 120 -82 126 3 3 12 -1 20
-9 24 -25 85 -113 99 -144 21 -46 73 -95 125 -118 41 -19 141 -44 256 -65 38
-7 40 -9 38 -42 -1 -33 -1 -34 14 -15 21 29 12 76 -36 181 -22 51 -41 102 -41
114 0 21 -3 22 -47 14 -69 -11 -106 -11 -110 2 -2 6 10 9 30 6 19 -2 64 6 101
17 107 33 127 30 163 -26 17 -27 53 -93 79 -148 31 -64 50 -93 52 -81 5 22
-84 206 -98 206 -6 0 -10 10 -10 23 0 12 -4 28 -9 35 -17 28 -100 31 -194 8
-12 -3 -6 2 13 11 22 11 61 17 107 17 75 1 84 7 57 37 -15 16 -14 19 15 33 58
30 84 17 115 -58 49 -119 78 -315 67 -455 l-6 -83 27 32 c62 75 142 269 180
434 14 63 32 82 43 46 4 -12 9 -19 12 -16 7 7 -8 107 -15 102 -4 -2 -7 21 -7
52 0 51 -4 63 -42 113 -22 31 -60 77 -82 103 -31 36 -41 56 -41 82 0 22 -6 37
-15 40 -8 4 -15 14 -15 24 0 10 -16 57 -36 105 -41 97 -74 128 -151 139 -24 3
-59 14 -78 23 -40 19 -40 22 9 123 25 52 35 65 52 63 12 -1 30 7 40 18 18 19
16 23 -48 152 -37 73 -70 147 -73 165 -6 26 -15 37 -42 48 -32 14 -37 13 -68
-5 l-34 -20 -71 32 -70 31 -17 -24 c-10 -14 -45 -55 -78 -91 -54 -59 -66 -80
-110 -195 -58 -154 -81 -203 -100 -210 -23 -9 -62 25 -83 74 -17 40 -82 362
-82 406 0 9 26 20 78 31 195 44 371 140 536 294 66 62 182 213 217 283 38 76
83 233 114 403 29 154 48 222 77 272 23 38 15 43 -19 11 -13 -12 -25 -19 -27
-17 -3 2 9 58 25 124 33 134 47 240 30 215 -6 -8 -11 -23 -11 -33 0 -10 -16
-71 -36 -135 -21 -64 -41 -148 -46 -187 -49 -389 -60 -429 -170 -650 -33 -65
-60 -99 -147 -186 -121 -121 -322 -261 -436 -305 -63 -25 -83 -28 -205 -28
-158 -1 -230 13 -260 52 -17 21 -19 28 -7 39 11 11 24 9 79 -17 138 -65 266
-50 466 53 140 71 213 120 298 200 121 112 185 214 278 439 36 86 76 270 76
348 0 25 7 65 16 89 8 24 36 126 61 225 25 100 51 199 58 221 80 247 79 260
-1 199 -27 -20 -68 -54 -91 -76 -45 -41 -109 -76 -119 -65 -3 3 9 24 27 47 28
34 31 43 19 51 -11 7 -8 8 11 4 21 -5 32 1 62 34 20 22 41 59 47 83 18 70 31
98 92 190 32 49 71 114 87 146 33 65 94 233 87 239 -2 3 -38 -62 -80 -144 -89
-176 -257 -430 -301 -455 -41 -23 -85 -33 -85 -19 0 6 27 41 60 77 61 67 160
217 160 241 0 7 5 13 11 13 5 0 7 5 4 10 -3 6 -17 10 -31 10 -31 0 -64 17 -64
33 0 7 41 77 90 156 50 79 91 151 92 160 0 9 2 22 2 29 1 15 204 232 217 232
16 0 -215 -439 -283 -537 -25 -37 -27 -43 -11 -43 18 0 77 68 142 164 19 27
65 121 103 210 38 88 89 198 113 244 24 45 41 82 37 82 -4 0 -50 -24 -102 -53
-115 -63 -210 -133 -361 -264 -63 -54 -148 -125 -189 -158 -41 -33 -94 -79
-117 -103 -51 -54 -115 -183 -142 -286 -10 -43 -21 -79 -23 -81 -9 -9 5 218
17 275 7 36 17 92 20 125 9 73 20 98 29 67 6 -19 -6 -113 -21 -167 -4 -15 -2
-17 7 -9 6 7 19 43 29 80 l18 69 7 -37 c14 -75 27 -51 90 162 25 85 60 220 76
300 17 80 37 171 45 203 13 56 12 59 -6 54 -15 -4 -18 -1 -14 16 14 57 23 172
15 192 -7 18 -1 40 26 95 34 73 41 96 25 86 -11 -7 -41 66 -41 99 0 21 -26 -1
-159 -137 l-158 -162 -20 39 c-11 22 -32 78 -47 124 -15 46 -67 163 -115 260
-49 97 -128 280 -176 406 -48 127 -96 247 -106 267 -11 21 -19 58 -19 84 0 39
-2 45 -15 34 -37 -30 -87 -149 -130 -305 -20 -70 -26 -64 -49 50 -10 49 -34
117 -63 175 -25 52 -49 109 -53 125 -6 28 -8 26 -34 -42 -28 -69 -28 -73 -12
-98 14 -21 16 -39 10 -100 -4 -41 -10 -72 -14 -70 -11 7 -56 123 -63 162 -4
22 -2 37 9 48 21 20 20 22 -80 173 -55 84 -106 149 -147 186 -34 31 -64 54
-67 51 -2 -2 -1 -20 2 -40 5 -25 22 -52 54 -84 62 -61 175 -218 167 -231 -10
-16 -20 -6 -106 106 -44 57 -85 104 -90 104 -5 0 -76 33 -157 73 -179 88 -172
85 -146 56 14 -17 19 -31 15 -48 -6 -23 -8 -22 -54 29 -26 28 -47 58 -47 65 0
7 37 25 83 40 113 37 119 41 83 55 -17 6 -62 25 -100 42 -39 17 -120 48 -180
70 -60 21 -116 43 -125 48 -19 10 -17 11 72 31 35 7 53 15 45 20 -8 5 -3 10
15 14 38 10 34 23 -10 31 -59 10 -70 20 -32 28 64 14 2 25 -148 25 -184 1
-345 -25 -457 -75 -113 -49 -116 -50 -75 -12 20 18 74 53 120 77 69 37 98 46
178 57 l96 13 -126 -2 -127 -2 -79 -41 -79 -42 -138 0 c-123 -1 -137 1 -124
14 8 8 64 28 124 44 192 52 641 67 807 26 53 -13 72 -14 83 -5 19 15 11 25
-44 53 -109 55 -361 119 -592 150 -182 25 -528 46 -641 39 l-102 -6 -24 -56
c-34 -78 -55 -97 -147 -131 -45 -17 -108 -43 -141 -57 -77 -34 -309 -167 -357
-205 -21 -16 -38 -25 -38 -20 0 20 113 112 247 203 240 161 252 176 292 344
31 129 65 198 125 251 76 69 96 78 346 152 157 47 312 108 386 153 75 46 131
101 218 214 42 55 93 117 114 138 34 35 35 38 12 32 -14 -4 -37 -14 -52 -21
-39 -20 -41 -18 -34 26 3 22 3 40 0 40 -3 0 -60 -54 -125 -119z m-1154 -981
c11 -18 -6 -50 -25 -50 -11 0 -23 -6 -27 -12 -9 -14 -5 -12 -223 -130 -85 -46
-167 -92 -182 -102 -16 -10 -28 -15 -28 -12 0 4 -8 2 -19 -3 -26 -14 -34 -1
-14 21 16 18 16 18 -2 12 -10 -4 -46 -28 -80 -53 -34 -25 -70 -51 -81 -57 -16
-10 -17 -13 -5 -28 8 -10 9 -16 3 -16 -6 0 -18 -22 -26 -49 -22 -76 -43 -108
-112 -176 -76 -74 -159 -120 -234 -129 l-55 -7 115 70 c144 87 179 116 212
178 30 54 47 133 30 133 -6 0 -23 -21 -39 -46 -70 -115 -194 -213 -310 -245
-114 -32 -285 -22 -356 22 l-30 18 34 9 34 10 -45 2 c-53 3 -74 5 -195 19
-103 12 -146 13 -100 1 23 -6 17 -7 -27 -6 -57 1 -58 1 -35 19 22 17 22 17 -8
6 -34 -12 -71 -39 -132 -96 -30 -29 -50 -40 -72 -40 -36 0 -36 16 -1 34 14 7
49 39 80 71 44 47 70 65 132 90 156 64 262 74 542 47 87 -9 161 -14 163 -11
13 12 -69 38 -179 56 -162 26 -338 27 -439 1 -106 -27 -170 -58 -298 -144 -62
-43 -119 -77 -126 -77 -6 0 -20 -9 -30 -20 -24 -26 -27 -25 -65 10 -27 26 -31
34 -25 62 11 51 30 81 78 125 81 75 111 88 247 108 69 9 140 24 159 31 19 8
36 12 39 9 4 -4 -91 -51 -180 -88 -21 -9 -38 -23 -38 -31 0 -20 -4 -21 81 15
73 31 244 79 282 79 21 0 21 0 1 -16 -10 -8 2 -3 28 11 l48 27 117 -11 c65 -7
147 -18 183 -27 109 -25 292 -29 389 -10 99 20 180 49 207 74 30 28 134 97
189 125 28 14 77 41 109 61 33 20 66 36 74 36 25 0 157 68 191 99 33 30 58 31
76 1z m-990 -70 c-16 -4 -41 -8 -55 -8 -22 0 -22 1 5 8 17 4 41 8 55 8 22 0
22 -1 -5 -8z m292 -5 c0 -8 -1 -15 -1 -15 -1 0 -22 -7 -48 -15 -59 -18 -62 -6
-5 22 51 26 54 27 54 8z m-726 -59 c-7 -8 -44 -22 -84 -31 -40 -10 -106 -29
-147 -42 -68 -22 -218 -63 -280 -78 l-25 -6 25 15 c14 8 31 15 37 16 7 0 41
13 76 29 129 59 287 104 386 110 19 1 21 -2 12 -13z m1721 -99 c-8 -73 -15
-94 -47 -144 l-37 -58 5 37 c7 49 80 274 85 260 2 -6 -1 -49 -6 -95z m519 62
c-51 -11 -161 -47 -243 -80 -83 -33 -152 -58 -154 -56 -2 2 -1 20 3 40 5 33
10 38 52 51 85 28 300 61 406 64 17 0 -12 -8 -64 -19z m-3089 -129 c-28 -26
-28 -34 1 -49 27 -14 85 -2 145 31 40 22 42 22 42 3 0 -9 9 -15 22 -15 20 0
21 -1 3 -20 -10 -11 -43 -34 -74 -51 -31 -18 -86 -62 -122 -100 -64 -66 -67
-67 -73 -44 -4 14 -11 25 -17 25 -6 0 -7 -5 -3 -12 4 -7 3 -8 -5 -4 -6 4 -8
13 -4 19 4 6 7 23 7 37 0 19 -5 25 -22 24 -12 -1 -22 2 -22 6 0 4 -18 10 -39
14 -22 3 -41 10 -43 15 -7 22 -51 -29 -69 -80 l-19 -54 5 50 c14 133 119 221
269 224 l40 1 -22 -20z m3713 -14 c-28 -19 -195 -77 -205 -71 -5 3 -11 1 -15
-5 -11 -18 -23 -11 -18 11 3 11 11 18 18 15 7 -2 18 1 24 7 14 14 154 55 191
56 24 1 24 0 5 -13z m-66 -50 c-9 -8 -245 -126 -252 -126 -42 0 80 69 203 116
35 12 57 17 49 10z m71 -71 c0 -2 -15 -12 -32 -20 l-33 -16 25 20 c24 20 40
26 40 16z m245 -69 c102 -31 206 -68 203 -72 -14 -13 -172 -22 -266 -15 -123
10 -158 23 -101 39 68 20 -102 13 -178 -7 -40 -11 -73 -16 -73 -11 0 4 48 28
108 53 96 42 113 46 167 42 33 -3 96 -16 140 -29z m-1765 9 c-7 -8 -22 -15
-34 -15 -20 1 -20 2 4 15 33 19 46 19 30 0z m-90 -35 c-8 -5 -21 -10 -29 -10
-8 0 -23 -7 -33 -17 -16 -14 -18 -14 -18 -1 0 10 15 20 38 26 49 13 60 14 42
2z m-140 -34 c0 -3 -4 -8 -10 -11 -5 -3 -10 -1 -10 4 0 6 5 11 10 11 6 0 10
-2 10 -4z m-2030 -16 c0 -5 -4 -10 -10 -10 -5 0 -10 5 -10 10 0 6 5 10 10 10
6 0 10 -4 10 -10z m2820 -1 c-65 -26 -320 -77 -320 -63 0 21 205 70 300 72 40
1 42 0 20 -9z m-910 -14 c-36 -8 -74 -14 -85 -13 -34 0 78 26 115 26 25 0 16
-4 -30 -13z m1341 -3 c22 -9 20 -10 -21 -16 -48 -7 -275 16 -288 29 -10 11
278 -2 309 -13z m-4463 -31 c16 -16 35 -43 42 -60 6 -17 21 -33 31 -36 38 -12
14 -41 -25 -31 -27 7 -94 70 -106 100 -8 22 4 56 20 56 4 0 22 -13 38 -29z
m550 -3 c23 -20 49 -62 56 -93 l7 -30 -28 35 c-68 86 -79 93 -137 87 -29 -3
-75 -17 -102 -31 -54 -28 -126 -85 -107 -86 13 0 5 -40 -8 -40 -5 0 -9 -6 -9
-12 0 -7 -18 -31 -40 -52 -22 -22 -40 -43 -40 -48 0 -4 -4 -8 -10 -8 -22 0 -9
31 47 110 l18 25 -30 -22 c-31 -21 -44 -41 -66 -98 -17 -41 -25 -7 -10 38 7
19 12 50 13 70 1 28 6 37 19 37 9 0 44 20 77 45 70 53 120 76 182 85 60 8 151
2 168 -12z m-753 -79 c-4 -12 -1 -21 9 -25 15 -6 36 -54 36 -83 0 -26 -48 -24
-79 2 -27 22 -27 23 -9 52 10 17 18 38 18 48 0 11 4 15 12 11 8 -5 9 -2 5 10
-4 10 -3 15 4 11 5 -4 7 -15 4 -26z m910 -19 c-3 -6 1 -7 10 -4 23 9 45 -14
45 -48 0 -32 -45 -100 -99 -152 -44 -42 -38 -22 9 31 35 40 51 73 35 73 -2 0
-23 -20 -46 -45 -39 -43 -44 -45 -96 -45 -30 0 -64 -5 -75 -11 -15 -8 -19 -8
-14 0 9 14 0 14 -25 1 -10 -6 -19 -16 -19 -23 0 -7 -9 -19 -20 -27 -11 -8 -20
-19 -20 -25 0 -20 -100 -114 -115 -109 -11 5 -13 2 -8 -12 5 -14 3 -16 -12
-10 -11 4 -17 4 -13 1 7 -7 -22 -45 -34 -45 -5 0 -8 16 -8 35 0 29 -4 35 -21
35 -17 0 -19 -3 -11 -13 9 -10 5 -22 -13 -50 -14 -20 -25 -40 -24 -44 4 -25
-3 -35 -21 -30 -15 4 -18 2 -12 -10 10 -18 3 -63 -9 -63 -5 0 -9 8 -10 18 -1
12 -3 10 -7 -6 -4 -13 -11 -22 -17 -22 -5 1 -9 6 -8 11 2 4 -5 5 -15 2 -9 -3
-14 -3 -10 2 4 4 1 14 -7 22 -8 8 -15 20 -14 26 0 9 2 8 6 0 2 -7 10 -13 16
-13 5 0 7 3 4 6 -4 4 5 20 18 36 25 29 28 39 40 109 3 20 16 48 29 62 12 13
38 52 57 85 41 72 183 210 225 218 19 3 43 -2 69 -16 50 -26 63 -25 67 3 2 14
9 20 18 18 50 -14 91 -9 118 14 28 25 48 33 37 15z m3100 -9 c-8 -14 -91 -38
-177 -52 -43 -7 -78 -16 -78 -20 0 -7 -85 -34 -135 -43 l-30 -5 30 15 c29 14
28 15 -35 10 -36 -2 -74 0 -85 4 -17 7 -14 9 12 9 40 1 426 67 468 80 17 5 31
10 33 10 2 1 1 -3 -3 -8z m-1861 -27 c9 -3 26 -24 38 -45 12 -21 25 -39 30
-39 32 0 -25 -115 -75 -151 -50 -36 -62 -37 -40 -1 l17 27 -25 -21 c-130 -114
-321 -85 -336 50 -7 55 13 64 23 11 8 -46 43 -81 90 -94 46 -11 120 0 116 18
-1 6 5 38 13 70 18 70 19 123 4 138 -24 24 98 55 145 37z m756 -1 c0 -3 -18
-23 -41 -44 l-41 -38 47 -6 c25 -4 72 -5 103 -3 l57 5 -35 -15 c-52 -23 -143
-22 -168 2 -21 18 -21 18 26 62 50 46 52 48 52 37z m-935 -58 c0 -16 -7 -20
-37 -20 -39 0 -67 -24 -68 -57 0 -22 28 -24 36 -3 4 8 11 15 18 15 6 0 -2 -12
-18 -26 -65 -58 -157 17 -94 76 28 26 72 39 123 37 33 -2 40 -6 40 -22z m-671
-25 c31 -17 56 -36 56 -41 0 -6 -4 -7 -10 -4 -20 12 -9 -7 27 -51 21 -24 43
-44 51 -44 14 0 42 -58 42 -89 0 -32 -31 -35 -60 -4 -73 77 -179 170 -213 187
-21 10 -65 18 -98 19 -32 1 -59 5 -59 8 0 10 34 37 60 48 47 20 143 7 204 -29z
m4541 9 c22 -10 59 -41 82 -68 41 -48 42 -49 15 -41 -47 14 -76 34 -116 78
-21 23 -43 42 -50 42 -7 0 -8 -3 -1 -8 24 -16 53 -69 46 -81 -5 -8 -21 5 -48
42 l-41 53 36 1 c20 1 54 -7 77 -18z m-1971 -10 c-13 -22 -128 -89 -151 -89
-14 0 -61 -9 -105 -20 -44 -12 -85 -19 -92 -16 -6 2 -2 5 9 6 17 2 16 3 -5 9
-20 6 -6 13 80 40 58 19 141 44 185 56 44 13 81 23 83 24 2 1 0 -4 -4 -10z
m-3769 -27 c-3 -3 -11 0 -18 7 -9 10 -8 11 6 5 10 -3 15 -9 12 -12z m24 -34
c6 11 13 7 30 -14 11 -14 21 -33 21 -42 0 -10 7 -13 21 -9 12 3 18 2 13 -2
-17 -16 -82 -20 -101 -6 -10 7 -15 17 -11 21 4 4 3 13 -4 21 -9 11 -7 12 8 7
16 -6 17 -5 7 7 -7 7 -13 18 -13 24 0 5 5 3 10 -5 8 -12 12 -13 19 -2z m1546
5 c-43 -11 -85 -36 -91 -56 -6 -18 -7 -19 -16 -3 -18 33 28 65 92 64 20 0 27
-2 15 -5z m-458 -79 c29 -31 83 -121 83 -139 0 -17 -20 0 -31 26 -30 74 -92
120 -161 121 -62 1 -23 24 46 27 21 1 38 -9 63 -35z m1632 5 c32 -30 51 -80
50 -131 l0 -43 -13 41 c-7 23 -26 61 -42 85 -45 68 -42 92 5 48z m-543 -28
c-29 -30 -122 -84 -166 -95 -14 -4 13 13 59 38 47 25 94 54 105 66 32 31 33
24 2 -9z m344 -2 c132 -62 170 -113 170 -229 0 -88 -22 -131 -106 -210 -84
-78 -113 -95 -150 -86 -27 7 -26 9 36 44 96 53 154 116 170 181 15 65 8 136
-20 191 -22 42 -87 91 -165 123 -25 10 -32 16 -20 16 11 1 49 -13 85 -30z
m-1749 -29 c-44 -114 -99 -174 -201 -214 -59 -24 -160 -37 -153 -20 4 12 92
54 113 54 18 0 105 47 139 76 17 14 43 47 58 73 25 44 52 81 60 81 1 0 -6 -23
-16 -50z m4075 12 c-2 -4 9 -17 25 -27 16 -11 32 -28 35 -37 3 -10 12 -24 19
-32 8 -8 17 -27 19 -42 3 -16 12 -34 21 -40 12 -9 8 -13 -23 -23 -35 -12 -43
-11 -89 13 -28 14 -64 39 -81 56 -21 20 -41 30 -64 31 -31 1 -93 16 -74 18 5
1 3 8 -4 16 -10 13 -9 15 11 16 13 1 27 1 32 0 4 0 7 3 7 7 0 4 21 14 48 21
26 7 58 17 72 21 33 11 52 12 46 2z m112 -23 l24 -29 -27 0 c-14 0 -24 4 -21
9 3 5 -1 14 -9 21 -14 12 -12 31 3 29 4 0 17 -13 30 -30z m-3940 7 c49 -27 73
-91 56 -153 -10 -38 -74 -37 -74 1 0 23 -24 63 -50 83 -8 7 -35 13 -60 13
l-45 1 29 25 c24 21 37 25 68 21 33 -4 37 -3 27 9 -9 11 -8 14 7 14 11 -1 29
-6 42 -14z m3372 9 c0 -2 -78 -29 -174 -60 -96 -30 -208 -71 -250 -90 -41 -19
-121 -46 -178 -59 -99 -23 -198 -39 -198 -32 0 4 140 50 220 71 63 16 150 45
150 48 0 3 -77 9 -127 10 -57 2 -54 14 5 22 107 14 232 36 254 45 20 8 18 9
-12 5 -19 -2 -80 -6 -135 -9 l-100 -5 75 14 c41 8 120 17 175 20 55 3 134 10
175 14 98 11 120 12 120 6z m-4687 -67 c-4 -37 1 -51 36 -103 41 -62 61 -115
43 -115 -19 0 -69 49 -86 84 -19 40 -21 114 -4 151 6 14 12 25 13 25 2 0 0
-19 -2 -42z m2718 31 c69 -24 130 -88 128 -136 0 -15 -2 -15 -7 -3 -10 22 -31
23 -25 1 3 -10 0 -22 -6 -25 -6 -4 -11 0 -11 11 -1 12 -5 8 -14 -12 -16 -37
-35 -54 -106 -95 -49 -29 -61 -32 -109 -27 -38 4 -65 1 -90 -10 -26 -11 -76
-16 -181 -17 -193 -3 -255 -22 -341 -107 -67 -66 -99 -76 -99 -31 0 15 -5 43
-10 62 -6 19 -11 72 -11 118 0 89 -19 177 -46 219 -17 26 -17 26 5 12 12 -8
28 -27 36 -44 14 -30 40 -198 37 -245 -2 -30 18 -80 31 -80 5 0 35 18 67 40
33 21 105 62 162 90 57 28 106 54 109 59 14 21 123 50 182 49 83 -2 148 31
164 82 14 44 52 52 84 20 17 -17 21 -29 15 -56 -5 -28 -3 -34 11 -34 25 0 54
30 54 56 0 39 -17 70 -52 92 -37 24 -28 28 23 11z m2573 -45 c4 -15 5 -29 1
-32 -3 -3 -5 2 -5 12 0 9 -4 14 -10 11 -5 -3 -10 1 -10 9 0 10 -6 13 -15 10
-8 -4 -15 -1 -15 5 0 6 11 11 24 11 17 0 26 -7 30 -26z m-2790 -19 c36 -15 55
-39 42 -52 -3 -3 -14 1 -24 10 -9 9 -37 25 -62 36 -39 17 -41 20 -19 20 15 1
43 -6 63 -14z m-1294 -30 c19 -21 24 -35 22 -72 -1 -25 -8 -56 -16 -68 -27
-41 -173 -121 -149 -82 4 6 0 8 -9 4 -27 -10 5 41 43 69 18 13 38 32 43 42 8
15 8 15 -7 3 -10 -8 -17 -9 -17 -3 0 6 5 14 10 17 6 3 10 28 10 54 0 26 3 51
7 54 13 14 40 6 63 -18z m2857 9 c-3 -3 -12 -4 -19 -1 -8 3 -5 6 6 6 11 1 17
-2 13 -5z m-799 -103 c22 -19 48 -36 56 -37 8 -1 25 -9 37 -18 22 -15 21 -15
-17 -10 -89 13 -174 80 -174 138 0 19 3 18 28 -9 16 -17 47 -45 70 -64z m1603
58 c-2 -8 -6 -23 -9 -33 -3 -11 -1 -17 5 -13 16 10 3 -45 -16 -67 -25 -29 -57
-41 -196 -75 -212 -52 -215 -52 -233 -41 -16 9 -16 9 0 10 9 0 18 4 20 8 6 15
107 71 147 82 23 6 56 23 74 39 53 45 96 73 145 92 51 20 69 19 63 -2z m190
-2 c29 -19 65 -64 105 -132 10 -18 12 -17 33 4 51 51 183 81 208 49 26 -35 76
-170 92 -250 l19 -90 -38 6 c-117 19 -218 87 -243 166 -18 56 -33 61 -41 15
-10 -50 -38 -62 -115 -45 -138 29 -196 112 -162 230 7 25 15 51 17 58 6 21 87
15 125 -11z m1742 -39 c15 -35 38 -94 51 -133 70 -207 192 -476 270 -597 39
-62 53 -106 41 -135 -5 -14 -13 -3 -36 46 -16 35 -32 62 -35 59 -3 -3 7 -50
22 -104 25 -92 26 -105 17 -182 -6 -45 -13 -86 -17 -89 -22 -22 -43 73 -66
302 -7 66 -16 130 -21 143 -14 37 -29 25 -30 -25 0 -65 -14 -30 -23 59 -12
119 -59 283 -167 576 -53 144 -53 142 -41 142 5 0 21 -28 35 -62z m-6452 25
c6 -16 9 -50 6 -78 -6 -59 9 -94 53 -125 21 -15 38 -20 53 -15 12 3 37 10 55
15 33 8 33 8 16 -11 -20 -22 -85 -26 -147 -8 -53 15 -92 76 -91 144 1 55 17
105 34 105 6 0 15 -12 21 -27z m1789 7 c0 -5 -18 -19 -41 -30 -70 -36 -159
-12 -92 24 31 17 133 22 133 6z m-354 -44 c13 -74 -39 -149 -149 -215 -59 -35
-87 -35 -87 -2 0 13 5 18 14 15 20 -8 77 19 117 54 38 33 64 84 74 145 7 46
22 48 31 3z m1777 -34 c-45 -69 -56 -78 -117 -102 -16 -6 0 15 47 60 76 74
101 88 70 42z m1958 8 c51 -14 108 -68 172 -161 l56 -82 -24 -19 -25 -19 -77
38 c-74 36 -80 42 -118 108 -22 39 -50 85 -62 102 -13 17 -23 34 -23 37 0 9
61 7 101 -4z m-4616 -46 c-44 -33 -95 -87 -95 -100 0 -19 1 -18 73 14 50 23
65 26 74 16 14 -14 -18 -42 -109 -93 -53 -30 -59 -32 -74 -16 -9 9 -21 14 -27
12 -13 -4 -41 -53 -49 -84 -7 -28 15 -31 52 -7 14 9 9 2 -10 -15 -44 -39 -99
-59 -110 -41 -5 8 -2 19 6 27 23 24 16 38 -8 16 -13 -11 -30 -23 -38 -26 -12
-4 -11 -6 3 -6 9 -1 17 -5 17 -10 0 -6 -8 -8 -17 -7 -10 2 -35 6 -55 10 -36 6
-58 28 -58 57 0 8 5 7 18 -3 27 -24 59 -30 96 -18 35 11 51 33 39 52 -3 7 -1
8 5 4 13 -8 36 30 27 45 -24 39 59 119 124 119 28 0 33 3 21 11 -12 8 -10 9 7
4 12 -3 25 -1 29 6 5 8 3 9 -6 4 -9 -6 -11 -4 -6 4 5 7 14 10 22 7 8 -3 14 -1
14 5 0 5 10 14 23 19 32 13 35 11 12 -6z m101 -56 c4 -7 3 -8 -4 -4 -7 4 -12
2 -12 -4 0 -6 -5 -8 -11 -4 -8 4 -7 9 2 15 18 11 17 11 25 -3z m-731 -84 c-3
-24 -10 -44 -16 -44 -5 0 -9 -13 -9 -28 0 -16 -7 -37 -16 -48 -15 -18 -15 -18
-10 11 4 17 11 57 16 90 6 33 13 69 17 79 11 36 26 -12 18 -60z m2930 41 c33
0 87 3 120 7 l60 6 -42 -13 c-71 -23 -149 -28 -218 -15 -77 14 -103 36 -29 23
27 -4 76 -8 109 -8z m-1420 -4 c-3 -5 -1 -12 5 -16 5 -3 10 -19 10 -35 0 -43
-52 -82 -153 -114 -79 -26 -90 -28 -149 -17 -99 17 -163 14 -210 -10 l-41 -21
24 30 c40 51 88 65 177 52 41 -7 89 -9 107 -6 19 4 77 38 131 76 99 71 110 77
99 61z m-320 -21 c3 -6 -1 -7 -9 -4 -18 7 -21 14 -7 14 6 0 13 -4 16 -10z
m895 -14 c78 -21 230 -102 285 -153 32 -30 87 -106 98 -136 8 -22 -91 52 -181
135 -112 103 -219 139 -355 118 -78 -12 -136 -38 -188 -85 -43 -39 -82 -52
-169 -59 -54 -4 -82 -14 -160 -55 -92 -49 -97 -51 -180 -51 -56 0 -95 5 -114
15 -15 8 -34 15 -42 15 -7 0 -15 4 -18 8 -3 5 56 8 132 8 l137 -1 87 43 c74
35 97 42 148 42 76 0 117 17 178 74 91 85 216 115 342 82z m-832 -21 c3 -2 2
-10 -1 -18 -6 -15 -140 -43 -157 -32 -15 9 -12 25 4 25 21 0 28 28 8 34 -9 2
19 2 62 0 44 -2 82 -6 84 -9z m3722 -72 c0 -10 -148 0 -212 14 -109 25 -115
47 -11 37 98 -10 126 -8 160 9 26 14 27 13 45 -21 10 -20 18 -38 18 -39z m755
32 c17 -13 26 -24 20 -25 -5 0 -23 11 -40 25 -16 13 -25 24 -20 25 6 0 24 -11
40 -25z m-5828 -14 c-2 -10 0 -26 5 -35 11 -20 -1 -20 -26 -1 -19 14 -19 15
-1 35 23 25 29 25 22 1z m5430 -22 c21 -12 49 -31 62 -42 33 -30 81 -107 81
-130 0 -16 6 -18 43 -15 l42 3 22 -65 c29 -84 28 -92 -4 -130 -26 -32 -28 -32
-92 -27 -49 5 -61 4 -48 -4 11 -6 45 -13 76 -16 52 -5 60 -3 81 18 l23 24 -7
-27 c-3 -15 -1 -28 5 -30 6 -2 13 -22 16 -45 5 -41 5 -41 -48 -72 -30 -17 -61
-31 -70 -31 -29 0 -95 82 -108 135 -9 34 -9 51 -2 53 7 2 5 9 -4 19 -17 16
-21 98 -5 108 5 3 -9 33 -32 66 -47 70 -87 162 -88 202 0 33 8 33 57 6z
m-3219 -34 c12 -11 -13 -44 -43 -58 -36 -17 -62 -59 -91 -144 -23 -68 -29 -71
-49 -19 -12 32 -16 64 -13 111 l4 65 -22 -27 c-19 -24 -24 -26 -38 -14 -19 16
-20 40 -3 62 19 25 232 44 255 24z m658 -8 c0 -1 19 -27 41 -57 59 -80 73
-113 73 -172 -1 -85 -28 -131 -149 -248 -59 -58 -115 -116 -123 -130 -9 -14
-19 -22 -23 -18 -4 3 19 52 51 108 47 84 65 105 97 122 75 38 98 68 104 134 6
70 -3 93 -78 195 -27 37 -49 70 -49 74 0 6 52 -2 56 -8z m2335 -37 c19 -22 15
-56 -12 -90 -16 -21 -20 -23 -29 -10 -5 8 -10 10 -10 4 0 -7 -21 -11 -55 -10
-46 1 -54 -1 -50 -14 3 -8 -6 -1 -20 15 -36 43 -31 65 19 105 18 14 19 14 8
-6 -6 -12 -7 -26 -2 -34 7 -11 11 -8 19 14 6 15 8 33 5 38 -5 7 1 9 14 6 14
-4 20 -2 16 4 -12 18 80 -3 97 -22z m-2872 6 c9 -11 9 -15 -1 -19 -18 -6 -50
12 -43 24 9 13 31 11 44 -5z m3421 -27 c113 -40 145 -66 200 -164 39 -69 51
-114 38 -138 -14 -28 -47 -57 -76 -68 -30 -12 -104 7 -131 32 -25 23 -51 82
-51 115 0 12 -13 58 -29 101 -34 94 -48 171 -29 156 7 -6 42 -21 78 -34z
m-5576 5 c9 -4 21 -15 27 -26 10 -18 9 -19 -13 -4 -13 8 -54 18 -93 21 -38 4
-72 9 -74 11 -7 7 136 5 153 -2z m109 -18 c-3 -13 0 -33 6 -45 10 -17 9 -21
-3 -21 -18 0 -30 34 -22 66 8 31 25 31 19 0z m311 -1 c-4 -8 -10 -15 -15 -15
-4 0 -6 7 -3 15 4 8 10 15 15 15 4 0 6 -7 3 -15z m56 5 c0 -5 -7 -10 -15 -10
-8 0 -15 5 -15 10 0 6 7 10 15 10 8 0 15 -4 15 -10z m4685 0 c3 -5 -1 -10 -9
-10 -9 0 -16 5 -16 10 0 6 4 10 9 10 6 0 13 -4 16 -10z m-1850 -22 c39 -6 108
-23 155 -39 47 -15 148 -40 226 -54 78 -14 170 -34 205 -45 135 -40 179 -55
179 -61 0 -10 -122 -16 -141 -7 -9 4 -79 24 -155 44 -367 96 -466 109 -557 74
-32 -12 -61 -20 -64 -17 -7 7 77 67 94 67 7 0 13 4 13 9 0 4 -27 14 -60 20
-33 7 -62 16 -65 21 -6 10 55 6 170 -12z m-1735 -4 c0 -38 -199 -237 -233
-232 -32 4 -33 41 -3 101 39 81 82 127 117 127 16 0 29 -5 29 -12 0 -8 6 -6
17 5 16 16 73 25 73 11z m3584 -10 c20 -19 20 -28 2 -43 -22 -19 -46 -2 -44
30 2 32 18 37 42 13z m-4221 -11 c68 -18 88 -33 41 -33 -14 0 -23 -4 -19 -10
10 -16 -7 -11 -50 15 -22 14 -49 25 -60 25 -17 0 -17 2 -5 10 19 13 14 13 93
-7z m4921 -24 c-3 -5 5 -10 18 -10 17 -1 18 -3 5 -6 -9 -2 -15 -8 -12 -13 3
-5 12 -7 20 -3 8 3 15 0 15 -6 0 -6 -9 -11 -20 -11 -11 0 -20 -4 -20 -9 0 -14
34 -8 44 8 7 11 10 11 17 0 5 -8 9 -18 9 -24 0 -5 -4 -4 -9 4 -6 9 -11 10 -15
3 -4 -6 -13 -9 -21 -5 -8 3 -15 0 -15 -6 0 -6 -5 -11 -11 -11 -5 0 -7 5 -3 12
5 8 2 9 -10 5 -14 -5 -15 -3 -6 13 12 22 13 41 1 22 -6 -10 -13 -6 -26 15 -16
24 -16 26 -2 14 17 -13 22 -7 18 21 0 4 6 5 14 2 8 -4 12 -10 9 -15z m-3486
-65 c52 -53 53 -57 47 -97 -10 -62 -80 -201 -116 -231 -17 -15 -33 -25 -35
-23 -2 1 9 32 23 67 33 81 41 190 20 278 -9 41 -11 62 -4 62 6 0 35 -25 65
-56z m-1669 -26 c12 -33 -1 -98 -19 -98 -18 0 -50 54 -50 85 0 38 6 45 36 45
16 0 25 -9 33 -32z m170 14 c6 -11 5 -29 -3 -52 -16 -44 -111 -182 -120 -173
-25 25 16 172 61 217 30 30 49 33 62 8z m347 -7 c10 -39 -14 -81 -70 -126
l-51 -41 -3 33 c-2 18 -1 53 3 77 5 34 13 47 38 63 45 27 75 25 83 -6z m-1023
0 c24 -10 52 -13 84 -9 l48 6 -42 -40 c-27 -24 -43 -49 -43 -63 -1 -13 -6 -34
-14 -47 -17 -32 -31 -13 -49 68 -8 36 -17 73 -22 83 -9 21 -7 21 38 2z m1090
-107 c11 -47 38 -111 54 -126 20 -21 13 -130 -15 -220 -25 -77 -94 -161 -174
-211 -74 -47 -89 -74 -96 -177 -2 -46 -8 -84 -12 -84 -12 0 -30 50 -30 84 0
78 39 137 115 175 25 12 53 34 63 47 9 14 32 45 51 70 34 47 91 211 91 264 0
17 -15 47 -39 76 -22 27 -40 56 -42 64 -4 20 10 60 21 60 4 0 10 -10 13 -22z
m3377 -48 c300 -90 545 -249 698 -451 94 -124 136 -276 137 -489 0 -91 -5
-165 -13 -197 -14 -53 -14 -53 -54 -53 l-40 0 32 36 c45 52 50 72 50 197 0
171 -12 226 -76 355 -49 99 -69 126 -157 218 -55 58 -128 125 -161 149 -125
89 -308 174 -556 258 -34 12 -39 16 -20 16 14 1 86 -17 160 -39z m-867 15
c131 -2 242 -6 245 -10 4 -3 -25 -6 -63 -5 -39 1 -110 -2 -160 -7 -121 -10
-194 -9 -292 7 -95 14 -115 36 -25 25 31 -3 164 -8 295 -10z m2143 -44 c120
-57 164 -116 164 -223 -1 -113 -31 -122 -172 -50 -69 35 -101 58 -125 90 -55
73 -56 115 -2 177 38 43 56 43 135 6z m-3436 9 c0 -30 -85 -372 -102 -413 -23
-54 -98 -121 -180 -163 -51 -26 -58 -28 -58 -16 0 4 24 22 54 40 64 38 126
105 156 168 16 36 110 366 110 389 0 3 5 5 10 5 6 0 10 -5 10 -10z m-348 -66
c-22 -64 -86 -186 -124 -233 -52 -65 -174 -149 -240 -165 -15 -3 -30 -15 -33
-26 -9 -28 -23 -25 -31 5 -8 33 13 60 33 44 10 -9 17 -8 31 3 9 9 37 26 62 38
44 22 95 59 153 110 38 33 89 122 118 201 37 105 65 125 31 23z m-898 -199
c-14 -59 -24 -77 -64 -117 -26 -27 -54 -48 -62 -48 -8 0 -20 16 -26 38 -11 35
-10 38 16 57 78 57 127 103 133 125 4 14 8 57 10 95 l3 70 3 -75 c3 -48 -2
-100 -13 -145z m5954 200 c5 -10 1 -50 -9 -103 -10 -48 -27 -143 -38 -212 -11
-71 -31 -151 -46 -185 l-25 -60 6 70 c12 123 7 325 -8 341 -4 3 -21 -16 -39
-43 -37 -55 -79 -103 -91 -103 -24 0 -3 55 43 112 60 73 180 198 191 198 4 0
11 -7 16 -15z m-4376 -91 c67 -26 179 -76 248 -113 117 -62 218 -107 370 -168
139 -55 308 -128 301 -131 -4 -1 -101 30 -216 69 -207 71 -241 80 -279 80 -10
0 -44 7 -75 15 -31 8 -98 19 -150 24 -108 10 -136 24 -64 34 26 4 65 9 87 12
l38 6 -58 34 c-70 41 -321 164 -334 164 -5 0 -12 5 -15 10 -12 19 23 10 147
-36z m-994 -19 c43 -13 52 -20 52 -39 0 -29 -14 -41 -119 -101 -94 -55 -200
-140 -218 -176 -7 -13 -22 -50 -33 -81 -12 -31 -32 -73 -45 -93 -19 -27 -25
-49 -25 -89 0 -88 -20 -89 -69 -7 -48 81 -50 105 -16 155 14 20 25 40 25 44 0
4 -4 2 -8 -4 -12 -18 -106 -79 -143 -93 -19 -7 -42 -17 -52 -22 -10 -5 -22 -7
-28 -4 -15 10 4 34 42 53 26 13 33 22 31 39 -2 12 2 31 8 43 8 15 8 20 -2 20
-15 0 35 35 77 54 30 14 106 86 157 149 42 52 244 165 299 167 8 0 39 -7 67
-15z m468 -162 c-19 -37 -99 -126 -137 -154 -26 -18 -28 -19 -22 -2 4 13 -4 9
-28 -12 -53 -46 -74 -55 -138 -55 -106 0 -156 -27 -266 -142 -53 -56 -117
-134 -142 -172 -76 -118 -96 -147 -134 -190 -54 -60 -56 -40 -3 24 25 30 56
75 69 100 13 25 54 83 91 130 37 47 92 115 121 152 72 91 118 116 235 131 81
9 100 16 150 49 31 21 74 59 95 85 21 26 56 67 78 91 39 44 40 44 43 19 2 -14
-3 -39 -12 -54z m3417 52 c8 -8 17 -11 21 -8 3 4 6 2 6 -4 0 -6 8 -13 18 -15
10 -3 19 -11 19 -19 0 -8 4 -27 7 -44 4 -16 10 -51 15 -77 l8 -47 -49 41 c-60
50 -77 75 -85 122 -9 59 9 83 40 51z m310 -82 c37 -8 79 -24 93 -36 60 -46 80
-155 45 -233 -23 -50 -67 -74 -129 -69 -51 5 -47 -9 8 -31 42 -17 57 -39 33
-48 -24 -9 -155 124 -194 197 -29 54 -33 73 -36 146 -1 46 0 87 2 91 6 10 99
1 178 -17z m-3334 -179 c22 -14 29 -24 19 -24 -26 0 -112 74 -141 122 -31 50
-17 44 34 -15 29 -32 68 -69 88 -83z m-1025 64 c17 -23 20 -55 10 -82 -13 -33
-23 -16 -49 82 -8 30 18 30 39 0z m-63 -46 c47 -85 46 -111 -7 -175 -13 -15
-38 -55 -56 -89 -38 -72 -52 -55 -15 19 14 26 35 85 47 130 l22 83 -20 34
c-18 31 -19 46 -3 46 3 0 18 -21 32 -48z m-407 -37 c-4 -8 -10 -15 -15 -15 -5
0 -8 -3 -7 -7 4 -17 -14 -54 -25 -50 -22 7 -19 36 7 62 28 28 48 33 40 10z
m-529 -160 c72 -72 138 -116 162 -108 17 6 26 -16 9 -23 -9 -3 -16 -15 -16
-25 0 -10 -3 -19 -8 -19 -4 0 -19 -11 -33 -24 -36 -34 -63 -40 -98 -21 -37 18
-44 31 -75 132 -30 97 -46 174 -45 216 1 32 1 31 16 -11 10 -29 40 -68 88
-117z m6460 -25 c-25 -106 -91 -307 -106 -324 -4 -5 -13 2 -19 16 -10 21 -8
32 10 68 46 89 69 165 63 206 -4 31 2 58 28 119 31 76 33 78 41 50 5 -21 0
-62 -17 -135z m-4895 59 c11 -6 8 -9 -14 -15 -32 -8 -178 10 -204 25 -21 12
196 2 218 -10z m-1242 -102 c17 -39 42 -74 79 -107 30 -28 59 -50 64 -50 5 0
9 -4 9 -10 0 -5 -17 -10 -38 -10 -45 0 -124 55 -149 104 -18 34 -29 136 -18
163 6 16 8 15 18 -7 5 -14 21 -51 35 -83z m122 80 c0 -8 9 -22 21 -33 19 -17
19 -19 3 -31 -13 -9 -21 -10 -31 -2 -15 13 -18 79 -3 79 6 0 10 -6 10 -13z
m4841 -24 c13 -16 12 -17 -3 -4 -10 7 -18 15 -18 17 0 8 8 3 21 -13z m-4581
-97 c0 -4 -5 -4 -12 0 -8 5 -10 -4 -6 -34 4 -30 0 -53 -17 -89 -26 -56 -56
-86 -107 -108 -51 -21 -78 -19 -183 11 -82 23 -158 31 -415 45 l-25 1 25 8
c42 13 240 10 325 -5 231 -43 212 -42 240 -15 15 14 42 57 62 97 31 63 35 78
29 121 -3 27 -4 51 0 54 6 6 84 -74 84 -86z m664 74 c74 -11 115 -27 188 -74
47 -30 70 -66 41 -66 -8 0 -11 5 -7 12 4 7 3 8 -5 4 -6 -4 -28 6 -50 23 -53
42 -73 39 -31 -4 44 -45 34 -45 -20 0 -23 19 -46 33 -51 30 -4 -3 -46 -1 -92
5 -98 13 -196 0 -236 -31 -14 -11 -59 -53 -100 -92 -69 -68 -88 -93 -173 -227
-48 -76 -123 -146 -187 -176 -54 -26 -55 -26 -220 -19 l-166 8 -83 43 c-59 32
-95 44 -125 44 -52 0 -87 9 -87 22 0 18 220 -2 268 -24 23 -11 42 -24 42 -28
0 -5 20 -8 45 -8 25 0 94 -6 153 -12 101 -11 110 -11 163 9 64 24 108 67 202
198 68 95 223 254 286 294 37 24 56 29 108 29 77 0 83 15 11 26 l-53 8 40 7
c60 9 65 9 139 -1z m3924 -3 c14 4 14 3 2 -5 -16 -12 -30 -7 -29 11 0 9 2 9 5
0 3 -7 13 -9 22 -6z m-4743 -33 c-12 -19 -14 -29 -6 -34 7 -4 9 -15 4 -28 -8
-21 -9 -21 -41 8 l-33 28 43 25 c24 14 45 25 47 26 2 1 -4 -11 -14 -25z m1285
-24 c58 -23 122 -40 145 -40 43 0 119 -18 176 -42 39 -17 142 -92 174 -128
l20 -22 -30 12 c-17 7 -70 32 -120 56 -89 44 -175 64 -212 50 -17 -7 -17 -8 1
-22 11 -8 17 -14 14 -14 -29 0 -315 123 -337 144 -12 12 -12 18 -1 30 19 24
56 19 170 -24z m3713 -2 c33 -17 70 -115 75 -199 5 -81 -6 -118 -36 -120 -11
-1 -8 -4 8 -9 24 -8 24 -8 -5 -8 -42 -1 -58 7 -105 52 -51 48 -90 132 -97 208
l-6 58 44 20 c44 20 82 19 122 -2z m-268 2 c3 -5 1 -10 -4 -10 -6 0 -11 5 -11
10 0 6 2 10 4 10 3 0 8 -4 11 -10z m-4455 -60 c0 -5 -5 -10 -11 -10 -5 0 -7 5
-4 10 3 6 8 10 11 10 2 0 4 -4 4 -10z m-575 -40 c3 -5 2 -10 -4 -10 -5 0 -13
5 -16 10 -3 6 -2 10 4 10 5 0 13 -4 16 -10z m430 -79 c-15 -14 -25 -21 -23
-16 2 6 13 29 24 52 18 40 19 41 22 16 3 -18 -5 -34 -23 -52z m-825 49 c0 -5
-2 -10 -4 -10 -3 0 -8 5 -11 10 -3 6 -1 10 4 10 6 0 11 -4 11 -10z m2330 -60
c0 -5 -7 -7 -15 -4 -8 4 -15 8 -15 10 0 2 7 4 15 4 8 0 15 -4 15 -10z m3140
-32 c50 -56 98 -135 115 -191 12 -39 11 -48 -5 -83 -11 -21 -39 -61 -65 -89
-36 -39 -49 -47 -61 -40 -23 15 -123 235 -124 271 -1 73 50 174 88 174 7 0 31
-19 52 -42z m-4998 -98 c34 -11 88 -23 118 -26 30 -4 60 -8 65 -8 6 -1 19 -7
30 -14 30 -17 -79 -16 -163 3 -134 30 -281 34 -362 10 l-25 -8 23 24 c22 23
29 24 145 23 78 0 106 2 77 6 -44 7 -44 7 -8 8 20 1 65 -7 100 -18z m4368
-140 c0 -10 -52 -40 -70 -40 -18 0 -11 15 18 32 30 20 52 23 52 8z m833 -65
c61 -29 104 -131 93 -215 -9 -65 -53 -173 -81 -200 -20 -19 -32 -22 -65 -17
-51 7 -54 10 -41 35 12 23 6 32 -24 32 -36 0 -50 42 -49 151 l0 97 39 49 c43
55 73 83 87 83 6 0 24 -7 41 -15z m-2228 -21 c94 -8 227 -19 297 -24 303 -22
158 -41 -211 -28 -232 8 -386 29 -465 62 -28 12 -18 13 89 9 66 -2 197 -11
290 -19z m1635 0 c0 -22 -129 -112 -220 -154 -30 -14 -58 -29 -61 -34 -4 -5
-12 -6 -17 -2 -6 4 -40 -7 -76 -24 -126 -60 -304 -102 -531 -126 -88 -9 -220
-24 -292 -33 -78 -10 -139 -13 -148 -8 -10 5 -46 0 -98 -14 -45 -12 -109 -25
-142 -29 -80 -10 -108 -24 -136 -72 -69 -113 -84 -127 -95 -84 -4 17 4 42 26
85 32 59 33 60 154 120 119 59 124 60 256 75 74 9 203 18 285 21 83 3 188 8
235 11 166 10 535 98 633 150 15 9 33 12 40 8 6 -4 9 -4 5 1 -4 4 2 13 15 20
51 26 73 42 106 72 19 17 40 29 48 26 7 -3 13 -7 13 -9z m254 -27 c-1 -9 1
-15 5 -12 4 2 21 -32 37 -76 18 -49 34 -77 41 -75 16 7 58 -28 50 -41 -4 -6
-16 -9 -26 -6 -15 4 -21 -2 -26 -26 -9 -43 -53 -66 -92 -49 -15 7 -31 17 -35
23 -5 6 -8 6 -8 -2 0 -19 -33 -8 -37 13 -22 103 -9 193 35 246 26 31 58 34 56
5z m-5050 -14 c11 -23 29 -32 93 -51 43 -13 84 -26 91 -28 7 -2 11 -8 8 -12
-3 -5 7 -7 22 -5 22 3 24 2 10 -6 -15 -10 -109 5 -164 26 -13 5 -15 3 -9 -8
12 -19 -44 17 -67 43 -19 22 -24 68 -8 68 5 0 16 -12 24 -27z m4389 -6 c33 -7
46 -15 43 -24 -3 -8 2 -13 12 -13 12 0 11 -4 -8 -17 -16 -12 -48 -19 -90 -21
-36 -2 -102 -5 -147 -8 -59 -4 -98 -1 -137 10 -30 9 -69 16 -88 17 -32 0 -32
1 -8 11 14 5 76 11 137 12 62 0 113 4 113 7 0 3 -15 11 -32 16 -31 9 -29 10
37 17 39 4 75 9 80 11 6 2 17 1 25 -1 8 -3 37 -10 63 -17z m-3600 -51 c32 -70
66 -101 169 -153 l83 -42 -48 -1 c-86 0 -157 45 -218 139 -27 42 -37 89 -22
104 10 11 10 11 36 -47z m-824 -71 c0 -5 -11 4 -24 20 -14 17 -25 35 -25 40 0
6 11 -3 25 -20 13 -16 24 -34 24 -40z m318 19 c4 -12 14 -14 34 -10 16 3 29 1
29 -4 0 -6 4 -10 9 -10 5 0 35 -16 67 -36 l59 -36 -58 6 c-57 6 -173 56 -160
69 3 4 2 7 -4 7 -5 0 -10 7 -10 15 0 20 26 19 34 -1z m2623 -49 c25 -13 54
-31 65 -39 19 -16 19 -16 -10 -14 -21 2 -30 -1 -30 -12 0 -8 13 -18 30 -21
l30 -7 -33 -1 c-19 0 -57 -8 -85 -15 -47 -13 -139 -25 -322 -41 l-60 -6 56 19
c31 11 81 29 110 40 30 12 66 24 82 27 35 7 34 19 -2 56 l-29 29 28 0 c15 0
33 6 39 14 14 17 61 6 131 -29z m1929 -19 c8 -10 5 -19 -14 -40 -29 -31 -36
-32 -60 -6 -17 19 -17 21 0 40 21 23 57 26 74 6z m-4204 -15 c3 -5 18 -12 34
-16 16 -3 32 -12 35 -20 3 -10 0 -12 -11 -8 -10 4 -14 2 -10 -4 4 -6 -6 -6
-29 1 -20 7 -32 16 -29 23 2 7 -3 13 -11 13 -8 0 -12 5 -9 10 8 13 22 13 30 1z
m2090 -21 c3 -5 2 -10 -4 -10 -5 0 -13 5 -16 10 -3 6 -2 10 4 10 5 0 13 -4 16
-10z m-2188 -6 c-3 -3 -12 -4 -19 -1 -8 3 -5 6 6 6 11 1 17 -2 13 -5z m190
-40 c-3 -3 -12 -4 -19 -1 -8 3 -5 6 6 6 11 1 17 -2 13 -5z m4142 -20 c34 -20
59 -60 85 -136 15 -41 14 -44 -4 -58 -15 -11 -18 -18 -9 -27 8 -8 7 -13 -2
-18 -8 -6 -10 -4 -4 6 4 8 -9 -5 -29 -28 -52 -60 -90 -60 -150 1 -36 35 -46
55 -56 101 -7 32 -10 74 -6 93 13 83 94 113 175 66z m-292 -19 c13 -3 22 -9
22 -13 -3 -20 2 -25 11 -12 8 12 10 11 10 -6 0 -11 -7 -29 -16 -40 -15 -18
-15 -18 -4 3 9 19 8 22 -5 17 -8 -4 -15 -10 -15 -16 0 -5 -4 -6 -10 -3 -5 3
-10 -4 -11 -17 -1 -19 -2 -17 -10 8 -10 36 -35 50 -56 33 -10 -9 -20 -9 -41 1
-25 12 -26 13 -7 20 11 4 26 5 33 3 22 -9 13 7 -10 17 -18 8 -15 8 15 4 25 -4
37 -2 37 6 0 6 8 9 18 6 9 -2 27 -7 39 -11z m-230 -51 c-3 -3 -12 -4 -19 -1
-8 3 -5 6 6 6 11 1 17 -2 13 -5z m-912 -14 c-3 -5 -13 -10 -21 -10 -8 0 -14
-5 -14 -11 0 -6 -9 -9 -20 -6 -11 3 -18 1 -14 -4 3 -5 -2 -9 -11 -9 -9 0 -33
-9 -55 -20 -47 -24 -49 -24 -46 -5 3 21 7 24 82 50 73 26 109 31 99 15z m1846
-37 c75 -79 74 -77 48 -119 -24 -39 -85 -73 -130 -74 -47 0 -131 55 -155 102
-15 29 -15 32 4 57 27 36 79 64 132 72 25 3 47 7 50 8 3 0 26 -20 51 -46z
m-5511 9 c61 -25 125 -124 134 -208 6 -49 -18 -134 -38 -138 -5 0 -10 40 -11
90 -1 95 -10 127 -27 103 -6 -10 -8 -8 -6 8 5 36 -124 143 -134 111 -3 -7 -11
-9 -24 -3 -18 8 -18 8 -1 12 12 3 16 10 13 20 -3 8 -4 18 -1 23 5 8 53 -1 95
-18z m6883 6 c-5 -7 -27 -44 -47 -81 -21 -38 -40 -66 -43 -64 -9 10 79 157 94
157 3 0 1 -6 -4 -12z m-2513 -32 c0 -2 -7 -7 -16 -10 -8 -3 -12 -2 -9 4 6 10
25 14 25 6z m-664 -32 c29 -12 54 -44 35 -44 -5 0 -12 -7 -15 -16 -5 -14 -4
-15 9 -4 12 10 15 10 15 -4 0 -9 -6 -16 -13 -16 -7 0 -40 -13 -72 -30 -32 -16
-62 -27 -66 -24 -5 3 -6 -2 -3 -10 3 -9 1 -16 -5 -16 -6 0 -11 5 -11 10 0 6
-3 9 -7 8 -12 -3 -57 23 -66 39 -5 7 -13 10 -19 7 -7 -5 -9 -1 -5 9 4 10 2 16
-5 14 -21 -4 -20 24 1 30 11 3 19 8 17 12 -3 4 16 13 42 21 26 7 56 19 66 26
20 14 47 11 102 -12z m-916 12 c0 -2 -7 -7 -16 -10 -8 -3 -12 -2 -9 4 6 10 25
14 25 6z m1691 -13 c13 -16 12 -17 -3 -4 -10 7 -18 15 -18 17 0 8 8 3 21 -13z
m71 -5 c-7 -7 -12 -8 -12 -2 0 14 12 26 19 19 2 -3 -1 -11 -7 -17z m38 -4 c0
-8 -5 -12 -10 -9 -6 4 -8 11 -5 16 9 14 15 11 15 -7z m-1850 -4 c-8 -5 -19
-10 -25 -10 -5 0 -3 5 5 10 8 5 20 10 25 10 6 0 3 -5 -5 -10z m1863 -28 c40
-5 54 -33 15 -31 -22 0 -22 1 -3 8 16 7 13 9 -17 13 -32 3 -38 1 -38 -15 0
-10 -5 -15 -11 -12 -6 4 -8 13 -5 21 3 8 1 14 -4 14 -6 0 -10 5 -10 11 0 7 7
8 18 3 9 -4 34 -9 55 -12z m-1963 -12 c-8 -5 -22 -10 -30 -10 -13 0 -13 1 0
10 8 5 22 10 30 10 13 0 13 -1 0 -10z m3921 -247 c-144 -214 -221 -314 -221
-287 0 21 104 180 218 334 149 199 152 203 158 197 3 -3 -67 -113 -155 -244z
m-3975 230 c-17 -18 -272 -110 -357 -129 -87 -20 -114 -12 -34 10 33 9 132 40
220 70 165 56 183 61 171 49z m2079 -13 c-3 -5 -12 -10 -18 -10 -7 0 -6 4 3
10 19 12 23 12 15 0z m-36 -16 c2 -2 -7 -4 -22 -4 -14 0 -29 5 -32 10 -6 10
42 4 54 -6z m1995 -16 c-11 -13 -56 -63 -100 -113 -82 -92 -174 -209 -257
-327 -93 -131 -80 -93 64 195 81 161 108 202 88 135 -15 -55 -11 -54 54 9 64
63 143 123 160 123 6 0 2 -10 -9 -22z m-3123 -29 c36 -23 72 -54 81 -69 17
-29 14 -45 -6 -33 -6 4 -20 9 -30 10 -16 3 -15 0 7 -20 25 -21 26 -24 11 -45
-19 -27 -51 -29 -59 -2 -9 27 -16 25 -56 -16 -39 -41 -98 -74 -132 -74 -13 0
-39 10 -58 23 -28 19 -35 30 -37 64 -5 63 43 136 118 182 52 31 87 27 161 -20z
m-592 27 c-2 -2 -15 -9 -29 -15 -24 -11 -24 -11 -6 3 16 13 49 24 35 12z
m1164 -13 c5 -3 3 -10 -4 -15 -11 -8 -10 -9 3 -5 20 7 63 -29 84 -67 15 -31
18 -50 7 -43 -5 3 -9 -5 -9 -17 -2 -31 -39 -108 -48 -99 -4 4 -9 -3 -13 -15
-5 -21 -14 -26 -40 -23 -7 1 -13 -3 -13 -8 0 -17 -62 -28 -110 -19 -25 5 -53
10 -64 11 -10 1 -32 14 -49 29 -19 19 -36 26 -48 23 -11 -4 -28 -3 -39 0 -20
6 -19 9 15 46 19 21 35 46 35 54 0 8 7 33 16 55 26 66 128 114 218 104 28 -3
54 -8 59 -11z m742 0 c0 -6 4 -15 9 -20 5 -4 6 -3 2 4 -4 8 1 11 13 10 18 -1
19 -3 5 -18 -25 -28 -136 -82 -184 -90 -50 -8 -133 6 -153 25 -7 7 -22 18 -35
25 -43 23 -22 31 81 31 68 0 122 6 158 17 30 9 62 16 72 15 10 0 15 4 11 10
-4 6 -1 9 7 6 8 -3 14 -10 14 -15z m459 -8 c11 -8 28 -15 37 -15 23 0 32 -15
24 -39 -5 -18 -75 -51 -107 -51 -10 0 -30 -16 -45 -36 -66 -85 -76 -95 -83
-84 -4 7 -10 11 -14 11 -25 -4 -38 2 -51 23 -13 20 -14 32 -6 61 8 31 51 85
67 85 3 0 17 8 31 18 24 15 89 37 118 40 6 1 19 -5 29 -13z m-2434 -15 c-8 -5
-19 -10 -25 -10 -5 0 -3 5 5 10 8 5 20 10 25 10 6 0 3 -5 -5 -10z m-2849 -58
c-27 -53 -64 -76 -112 -69 -29 4 -39 2 -39 -9 0 -19 -29 -18 -36 1 -5 13 -10
12 -30 -4 -13 -11 -33 -17 -43 -14 -10 2 -25 -3 -35 -12 -9 -9 -16 -13 -16 -8
0 31 103 81 186 89 62 6 72 10 104 44 41 43 49 37 21 -18z m-307 -72 l-36 -35
17 40 c9 22 20 44 26 50 5 5 9 23 10 40 1 25 3 22 10 -15 8 -43 7 -46 -27 -80z
m5330 83 c-7 -55 -16 -93 -24 -93 -4 0 -10 -9 -13 -21 -7 -27 -14 -22 -57 37
-20 29 -28 45 -18 42 12 -5 14 -2 11 12 -6 21 36 47 78 49 22 1 25 -3 23 -26z
m-2194 -10 c0 -27 -39 -89 -79 -128 -46 -45 -49 -53 -23 -62 25 -10 62 -51 62
-71 -1 -89 -37 -127 -132 -138 -51 -6 -62 -4 -92 17 -60 41 -61 57 -13 150 40
76 41 81 24 94 -18 13 -18 14 0 30 19 17 129 91 165 111 28 16 88 14 88 -3z
m223 -17 c11 11 58 13 55 2 -2 -5 -6 -8 -10 -6 -3 2 -26 -18 -50 -44 -56 -60
-138 -101 -138 -68 0 6 -9 10 -20 10 -22 0 -27 -15 -7 -23 6 -3 2 -6 -10 -6
-25 -1 -39 14 -21 23 7 4 3 4 -9 2 -25 -5 -31 8 -10 21 8 4 22 23 32 40 13 23
21 29 27 20 5 -8 8 -7 8 6 0 19 20 24 20 5 0 -9 3 -10 8 -2 4 6 27 18 52 26
38 13 47 14 56 2 6 -8 14 -11 17 -8z m1350 -13 c18 -9 48 -28 67 -43 19 -15
48 -31 64 -34 51 -12 153 4 192 30 50 35 52 29 4 -11 -23 -19 -48 -35 -56 -35
-8 0 -14 -3 -14 -7 0 -5 -11 -9 -24 -9 -41 -3 -79 -28 -93 -61 l-13 -33 41 0
c36 0 40 -2 29 -15 -14 -17 -66 -20 -76 -4 -4 7 -9 8 -17 0 -7 -7 -18 -5 -36
8 -20 15 -50 20 -133 23 -96 3 -109 6 -132 27 -94 88 75 228 197 164z m-1766
1 c-3 -3 -12 -4 -19 -1 -8 3 -5 6 6 6 11 1 17 -2 13 -5z m2293 -91 c0 -5 -9 3
-20 17 -19 24 -20 24 -20 3 0 -12 -5 -23 -12 -25 -19 -7 -68 4 -68 14 0 6 14
8 30 6 24 -4 30 -1 25 9 -3 8 -5 17 -5 19 0 2 -9 4 -20 4 -29 0 -25 15 8 26
25 9 29 6 55 -28 15 -21 27 -41 27 -45z m-2450 42 c-10 -12 -10 -15 1 -15 11
0 11 -2 -1 -9 -8 -6 -17 -8 -21 -5 -4 2 -11 0 -14 -6 -4 -6 -39 -27 -78 -46
-65 -33 -177 -131 -177 -155 0 -12 -77 -11 -85 1 -7 12 27 91 46 106 8 6 37
17 64 24 28 8 65 22 84 33 19 10 45 17 58 14 13 -2 26 0 29 5 3 4 2 8 -3 7
-31 -5 -20 6 32 31 68 33 83 37 65 15z m40 1 c0 -3 -4 -8 -10 -11 -5 -3 -10
-1 -10 4 0 6 5 11 10 11 6 0 10 -2 10 -4z m-1728 -42 c-5 -10 -6 -31 -1 -53
14 -58 12 -62 -17 -51 -38 15 -49 13 -84 -16 -17 -15 -33 -24 -36 -21 -3 3 13
18 35 33 49 32 45 46 -5 19 -27 -15 -43 -34 -65 -85 -17 -36 -33 -85 -36 -110
l-6 -44 -28 104 c-16 58 -31 115 -35 128 -6 21 -3 22 44 22 31 0 54 5 59 13 4
7 40 25 78 40 39 15 77 31 85 37 19 12 24 6 12 -16z m1718 -19 c-7 -8 -18 -15
-24 -15 -6 0 -2 7 8 15 25 19 32 19 16 0z m-2510 -35 c0 -5 -2 -10 -4 -10 -3
0 -8 5 -11 10 -3 6 -1 10 4 10 6 0 11 -4 11 -10z m2508 -40 c-3 -15 -48 -21
-58 -8 -7 9 -98 -37 -120 -60 -8 -8 -10 -12 -4 -9 6 4 23 1 38 -6 25 -11 27
-16 21 -52 -7 -52 -37 -78 -79 -69 -17 3 -37 11 -43 16 -18 14 -16 93 2 132
24 51 127 102 173 85 15 -6 26 -4 34 6 11 12 15 11 26 -3 7 -9 11 -23 10 -32z
m-1628 -79 c30 -16 70 -37 88 -47 18 -10 32 -26 32 -36 0 -10 -2 -18 -4 -18
-2 0 -12 -3 -20 -6 -12 -5 -15 -2 -10 10 5 12 0 16 -23 16 -17 0 -33 8 -41 20
-20 33 -86 27 -124 -10 -16 -17 -34 -28 -39 -24 -15 9 -10 33 10 51 11 9 17
22 14 29 -3 8 0 14 7 14 6 0 8 4 5 10 -3 6 1 7 9 4 9 -3 16 -1 16 5 0 18 21
13 80 -18z m1500 9 c0 -5 -7 -7 -15 -4 -8 4 -12 10 -9 15 6 11 24 2 24 -11z
m30 0 c0 -5 -5 -10 -11 -10 -5 0 -7 5 -4 10 3 6 8 10 11 10 2 0 4 -4 4 -10z
m-2668 -35 c-2 -19 -9 -35 -14 -35 -6 0 -8 10 -4 23 3 12 6 28 6 35 0 6 4 12
8 12 4 0 6 -16 4 -35z m-112 -54 c0 -5 -9 -11 -20 -14 -17 -4 -18 -2 -9 14 9
18 29 18 29 0z m30 -13 c0 -12 -3 -18 -7 -14 -11 10 -12 36 -2 36 5 0 9 -10 9
-22z m2545 -13 c68 -69 64 -131 -17 -265 -34 -58 -89 -90 -153 -90 -63 0 -80
11 -95 66 -23 83 17 224 76 269 84 64 141 70 189 20z m-2571 -11 c5 -14 4 -15
-9 -4 -17 14 -19 20 -6 20 5 0 12 -7 15 -16z m2109 -33 c3 -15 1 -18 -11 -14
-9 4 -13 2 -9 -5 4 -6 -28 -39 -76 -79 -86 -71 -146 -133 -187 -193 -13 -19
-27 -37 -30 -40 -9 -7 -50 -76 -50 -84 0 -3 5 -6 10 -6 6 0 9 3 9 8 -3 19 2
33 11 27 5 -3 7 -12 4 -20 -3 -8 3 -34 15 -58 22 -45 20 -70 -11 -133 -15 -32
-54 -47 -72 -28 -9 8 -25 17 -36 19 -30 6 -41 15 -34 28 3 7 -8 -3 -25 -21
-17 -18 -31 -38 -31 -45 0 -7 3 -8 8 -2 4 6 14 12 22 13 8 2 12 0 8 -4 -4 -4
-3 -13 3 -20 7 -9 6 -14 -2 -20 -7 -4 -15 -2 -17 4 -9 27 -24 10 -18 -20 8
-43 -7 -67 -31 -52 -10 7 -17 20 -15 30 2 14 -4 12 -23 -11 -14 -16 -24 -34
-22 -39 2 -6 -4 -17 -13 -26 -25 -25 -79 -207 -90 -301 -14 -120 -12 -200 5
-223 13 -17 15 -18 15 -3 0 9 -4 17 -10 17 -5 0 -10 18 -10 40 0 26 5 40 13
40 16 0 47 87 47 136 1 34 7 44 50 79 37 30 48 45 44 59 -4 12 -2 16 5 12 7
-4 11 1 11 13 0 11 -4 23 -10 26 -5 3 -10 11 -10 16 0 6 7 3 16 -5 12 -13 14
-26 9 -59 -4 -23 -13 -45 -19 -50 -7 -5 -6 -11 7 -18 21 -12 23 -31 2 -23 -9
4 -15 0 -15 -10 0 -9 -7 -16 -15 -16 -12 0 -15 -16 -15 -84 0 -50 4 -88 11
-91 6 -4 15 -17 20 -29 9 -19 9 -18 6 6 -2 15 0 25 4 22 15 -9 10 -42 -11 -76
-11 -18 -20 -41 -20 -52 0 -14 -3 -16 -13 -8 -9 8 -12 0 -12 -36 0 -26 -3 -72
-7 -102 -4 -30 -4 -44 1 -30 6 21 10 13 26 -51 17 -73 15 -131 -4 -100 -5 7
-14 10 -20 7 -10 -7 -15 23 -12 79 l1 20 -9 -20 c-18 -39 -12 -113 13 -163 14
-26 28 -64 31 -84 4 -21 10 -38 14 -38 13 0 32 -70 26 -93 -5 -17 -4 -19 4 -7
8 12 11 9 10 -15 0 -16 -3 -24 -6 -17 -2 6 -13 12 -24 12 -13 0 -17 -5 -12
-17 4 -11 3 -14 -6 -9 -7 5 -10 14 -7 22 8 20 -4 44 -21 44 -13 0 -13 -3 -3
-15 7 -9 8 -15 2 -15 -14 0 -23 27 -15 48 6 15 5 15 -10 4 -14 -12 -20 -8 -46
34 -17 26 -28 51 -24 57 3 5 0 12 -6 16 -7 4 -13 21 -14 37 -1 16 -8 35 -15
42 -7 8 -12 26 -11 40 0 15 -4 45 -9 67 -6 22 -13 119 -16 215 -8 212 10 415
45 500 56 137 140 283 318 550 92 139 250 304 366 383 22 15 40 27 41 27 1 0
4 -9 7 -19z m4542 -88 c-9 -14 -45 -38 -78 -53 -61 -27 -192 -59 -202 -49 -3
3 1 17 8 32 13 28 72 56 162 77 28 6 66 20 85 30 30 15 36 16 38 4 2 -8 -4
-26 -13 -41z m-5477 -18 c17 -36 15 -119 -3 -163 -15 -36 -91 -122 -107 -122
-16 0 -7 42 16 73 27 37 42 81 51 152 12 92 22 106 43 60z m-1033 -15 c3 -5 1
-10 -4 -10 -6 0 -11 5 -11 10 0 6 2 10 4 10 3 0 8 -4 11 -10z m2124 -80 c1
-55 -2 -72 -14 -76 -10 -4 -14 -16 -11 -39 3 -25 1 -32 -9 -29 -14 6 -37 -28
-34 -49 2 -6 -1 -27 -5 -44 -7 -31 -10 -33 -51 -33 -24 0 -47 5 -50 10 -4 6
-9 35 -12 64 -11 109 60 243 141 265 17 4 34 7 37 5 3 -2 7 -35 8 -74z m-2112
38 c-3 -8 -6 -5 -6 6 -1 11 2 17 5 13 3 -3 4 -12 1 -19z m45 -39 c6 -3 2 -9
-7 -12 -9 -4 -13 -3 -10 3 3 6 2 10 -2 10 -5 0 -9 10 -10 23 -2 21 -2 21 9 2
6 -11 15 -23 20 -26z m132 -98 c-40 -63 -86 -112 -97 -103 -23 17 -49 23 -44
10 2 -7 8 -24 12 -38 7 -23 6 -24 -9 -10 -16 12 -18 12 -16 -1 8 -50 -14 -53
-30 -3 -22 65 8 134 57 134 15 0 22 4 17 11 -10 17 11 25 71 25 l55 0 -16 -25z
m-261 -31 c-8 -29 -22 -35 -41 -16 -15 15 -15 18 -2 26 27 17 49 12 43 -10z
m-223 -65 c23 -48 20 -60 -19 -91 -8 -7 -12 -21 -9 -37 7 -35 -14 -36 -49 -1
-25 26 -27 26 -40 8 -8 -11 -18 -26 -23 -34 -5 -8 -12 -12 -15 -8 -9 8 78 131
110 156 17 14 21 22 13 35 -6 11 -5 17 1 17 5 0 19 -20 31 -45z m533 -21 c-2
-7 -12 -14 -21 -17 -9 -3 -25 -8 -35 -12 -14 -6 -13 1 10 46 l27 54 12 -30 c6
-16 10 -35 7 -41z m1838 39 c-12 -20 -14 -14 -5 12 4 9 9 14 11 11 3 -2 0 -13
-6 -23z m191 15 c68 -15 112 -62 78 -83 -5 -3 -10 2 -10 12 -1 17 -1 17 -11 1
-5 -10 -14 -18 -19 -18 -6 0 -32 -22 -60 -49 -47 -46 -130 -88 -145 -73 -3 4
-3 -1 0 -10 4 -9 15 -18 26 -21 28 -7 23 -36 -7 -43 -19 -5 -22 -9 -12 -15 10
-7 9 -9 -4 -9 -19 0 -21 7 -38 102 -12 67 -12 67 20 123 32 56 78 95 112 95 9
0 40 -5 70 -12z m-2419 -28 c25 -8 41 -21 48 -37 5 -14 19 -40 31 -57 12 -17
18 -28 13 -24 -4 4 -14 0 -21 -10 -8 -9 -14 -12 -14 -5 0 6 5 15 10 18 10 6
-106 125 -122 125 -4 0 -8 5 -8 11 0 8 4 8 13 2 6 -6 29 -16 50 -23z m120 -11
c24 -43 23 -63 -5 -55 -13 3 -27 6 -31 6 -4 0 -6 12 -3 28 2 15 5 33 5 40 2
21 15 13 34 -19z m887 6 c0 -3 -18 -17 -40 -31 -46 -31 -47 -43 -1 -20 38 20
55 20 21 1 -36 -21 -170 -61 -270 -80 -91 -18 -134 -39 -245 -118 -41 -29 -60
-39 -46 -24 13 14 65 53 115 86 77 50 107 63 196 85 117 29 202 60 240 87 27
20 30 21 30 14z m-470 -29 c0 -2 -35 -27 -77 -57 -43 -29 -96 -66 -117 -83
-42 -32 -60 -39 -88 -30 -21 6 -24 24 -5 24 8 0 38 17 68 38 30 21 79 48 109
61 30 12 66 28 80 36 28 16 30 17 30 11z m912 -55 c-6 -20 -13 -54 -16 -77 -3
-22 -14 -56 -23 -75 l-18 -34 -3 44 c-2 27 4 63 17 95 11 28 26 65 32 81 16
41 25 13 11 -34z m672 -40 c4 -5 0 -12 -6 -15 -10 -5 -10 -7 -1 -12 13 -6 19
-33 27 -124 3 -38 2 -49 -5 -35 -7 15 -8 11 -5 -17 3 -35 2 -37 -16 -27 -15 8
-19 8 -14 0 4 -6 0 -11 -8 -11 -9 0 -16 -4 -16 -9 0 -14 -51 -4 -72 16 -21 18
-21 18 -9 -4 6 -13 7 -23 2 -23 -16 0 -51 85 -51 124 0 49 24 100 55 116 20
11 56 20 107 29 4 0 9 -3 12 -8z m2156 -20 c31 -6 -15 -9 -145 -10 -210 -2
-626 -17 -695 -26 -36 -4 -40 -3 -20 5 58 22 273 38 540 38 151 0 295 -3 320
-7z m706 -20 c28 -17 55 -27 58 -24 3 4 6 1 6 -5 0 -7 7 -12 15 -12 22 0 18
15 -7 28 -13 6 -17 11 -10 11 17 1 63 -49 56 -60 -3 -5 0 -9 6 -9 6 0 4 -12
-5 -31 -9 -17 -19 -28 -22 -25 -3 3 0 12 7 21 18 21 7 19 -20 -5 -25 -21 -40
-26 -40 -11 0 5 -10 11 -22 14 -22 6 -22 6 -4 -8 11 -8 17 -15 14 -15 -4 0
-14 -3 -24 -7 -11 -4 -15 -3 -10 5 3 6 2 13 -4 17 -5 3 -10 1 -10 -4 0 -6 -5
-11 -11 -11 -6 0 -9 7 -6 14 4 9 1 13 -7 10 -13 -5 -76 75 -76 98 0 20 21 38
44 38 11 0 43 -13 72 -29z m-5251 -52 c22 -22 77 -68 122 -101 58 -41 85 -67
89 -86 4 -15 22 -62 40 -104 50 -111 73 -212 89 -393 19 -213 47 -312 128
-455 91 -160 246 -331 377 -415 266 -171 392 -210 908 -286 83 -12 94 -19 144
-87 110 -148 284 -302 416 -366 37 -18 83 -40 102 -49 l35 -17 -35 6 c-107 18
-360 186 -453 302 -61 75 -128 140 -156 151 -14 6 -66 17 -116 25 -330 53
-552 114 -710 193 -106 53 -254 156 -323 224 -94 92 -147 166 -213 300 -91
183 -117 272 -129 431 -18 223 -28 280 -75 404 -25 64 -47 120 -51 123 -3 3
-15 6 -27 6 -14 0 -21 7 -22 22 -1 13 -4 24 -6 26 -2 2 -37 25 -77 52 -41 26
-76 54 -79 61 -6 16 -33 19 -33 4 0 -20 -17 -9 -48 28 l-30 39 47 2 c43 1 50
-2 86 -40z m4416 -35 c57 -9 130 -19 161 -23 l58 -6 -75 -100 c-74 -100 -128
-198 -159 -288 -45 -134 13 -407 111 -513 71 -77 153 -111 313 -128 l115 -13
-131 -129 c-72 -71 -151 -140 -174 -154 -24 -14 -54 -35 -67 -48 -20 -19 -23
-25 -12 -38 18 -22 6 -28 -116 -63 -60 -17 -135 -40 -165 -51 l-55 -20 80 4
c44 3 123 17 175 31 124 34 231 51 256 40 13 -6 -7 -12 -71 -20 -75 -10 -104
-19 -169 -55 -73 -40 -80 -42 -116 -31 -63 19 -186 26 -195 11 -5 -8 -2 -18 9
-25 14 -11 6 -15 -54 -30 -56 -14 -96 -16 -193 -11 -67 3 -108 2 -92 -3 34 -9
115 -50 100 -51 -5 0 10 -14 35 -31 l45 -30 -35 6 c-19 4 -69 23 -109 41 -48
22 -110 40 -174 51 -65 11 -101 21 -104 31 -3 8 2 55 11 106 20 113 20 129 -1
92 l-16 -30 -23 30 c-14 16 -38 56 -55 89 -37 71 -81 136 -104 155 -14 11 -37
9 -159 -15 -128 -25 -145 -26 -170 -13 l-27 14 53 36 c80 52 88 56 193 79 85
19 102 20 137 8 21 -7 43 -19 47 -27 7 -12 22 -7 87 27 44 23 90 51 104 61 23
18 23 20 5 20 -11 0 -36 -5 -55 -10 -19 -6 -84 -15 -145 -20 -60 -5 -128 -12
-151 -15 l-41 -7 -12 61 c-9 47 -20 69 -51 103 -22 23 -40 45 -40 50 0 4 -17
15 -37 24 -21 10 -40 19 -42 21 -9 7 55 67 107 100 30 19 51 37 49 40 -8 7
-107 -38 -107 -50 0 -6 -3 -8 -6 -4 -6 6 -94 -49 -94 -59 0 -7 38 15 45 26 3
6 12 10 18 10 7 0 -1 -12 -18 -25 -16 -14 -38 -32 -47 -41 -18 -17 -43 -10
-31 9 4 7 -1 5 -12 -3 -17 -14 -17 -15 -1 -18 22 -5 16 -24 -11 -36 -11 -5
-26 -19 -34 -32 -8 -12 -39 -51 -69 -88 -52 -62 -89 -82 -104 -57 -11 16 44
184 87 266 71 137 270 316 564 509 108 70 149 108 68 63 -26 -15 -54 -27 -61
-27 -8 0 -14 -5 -14 -12 0 -6 -3 -9 -6 -5 -9 9 -74 -26 -189 -101 -115 -76
-310 -265 -363 -353 -18 -30 -49 -81 -69 -113 -26 -43 -37 -72 -38 -105 -1
-25 -8 -65 -14 -88 l-12 -43 -50 0 c-44 0 -51 3 -59 26 -16 41 -12 85 15 163
90 266 323 529 640 724 89 55 112 67 75 40 -230 -169 -391 -313 -514 -463 -94
-113 -179 -262 -191 -336 l-7 -39 22 30 c11 17 34 55 50 85 137 263 424 532
729 682 79 40 90 42 209 50 139 9 180 21 112 32 -49 8 -44 17 20 36 113 32
445 40 611 14z m509 -15 c3 -3 35 -20 73 -38 37 -18 67 -37 67 -42 0 -6 5 -7
12 -3 6 4 8 3 4 -4 -3 -6 -2 -13 4 -17 27 -17 -73 -104 -105 -91 -9 3 -13 2
-10 -4 8 -13 -56 -13 -89 0 -14 5 -32 23 -41 39 -18 36 -21 116 -3 105 7 -5 8
-3 3 5 -10 18 34 62 60 59 11 -2 22 -6 25 -9z m-4950 -58 c0 -35 -18 -14 -26
29 -5 33 -5 34 10 16 9 -11 16 -31 16 -45z m481 36 c-5 -5 -7 -17 -4 -26 6
-14 4 -14 -14 2 -26 23 -32 22 -26 -5 l6 -23 -22 22 c-25 26 -27 35 -6 27 8
-3 17 0 20 8 4 10 15 13 31 10 17 -3 22 -8 15 -15z m4349 -17 c-14 -27 -12
-81 5 -130 18 -51 19 -60 4 -60 -6 0 -9 6 -6 14 3 8 -1 17 -8 20 -11 4 -12 0
-5 -18 5 -13 6 -27 3 -30 -4 -3 1 -6 10 -6 10 0 17 -4 17 -10 0 -5 -6 -7 -14
-4 -8 3 -17 1 -21 -5 -3 -6 -3 -11 2 -11 4 0 9 -11 9 -26 2 -22 1 -23 -10 -8
-11 15 -13 15 -19 1 -3 -9 0 -18 9 -21 8 -3 14 -10 14 -17 0 -7 -17 -10 -49
-7 -27 1 -47 0 -44 -4 2 -5 0 -8 -6 -8 -6 0 -15 9 -21 21 -9 16 -18 19 -36 15
-25 -7 -34 8 -11 18 6 3 0 3 -15 1 -33 -4 -33 -3 -12 40 14 30 18 33 38 24 12
-6 28 -25 34 -42 l12 -32 20 33 c20 32 26 73 13 86 -10 9 -33 78 -33 97 0 9 7
22 15 29 12 10 15 10 15 -4 0 -10 15 1 41 29 40 44 69 53 49 15z m-2659 -101
c21 -10 37 -55 33 -89 -1 -14 -3 -42 -3 -63 -1 -26 -5 -36 -13 -31 -7 4 -8 3
-4 -5 9 -14 -16 -54 -62 -99 -29 -28 -36 -31 -50 -20 -9 7 -18 13 -20 14 -2 1
1 12 8 23 17 33 -4 25 -23 -9 -50 -84 -118 26 -97 155 15 91 68 136 160 134
30 -1 62 -5 71 -10z m2525 -55 c-3 -9 -6 -18 -6 -20 0 -2 -7 -4 -15 -4 -13 0
-13 3 -3 20 15 24 33 27 24 4z m-3219 -139 c-2 -58 -8 -109 -12 -113 -4 -4 -5
10 -2 31 3 20 4 37 2 37 -8 0 -36 -113 -31 -128 3 -9 -1 -44 -8 -77 l-12 -60
-13 37 c-18 55 -11 97 65 361 12 39 15 11 11 -88z m4703 37 c1 -3 -3 -8 -9
-10 -9 -3 -51 54 -51 70 0 8 59 -50 60 -60z m20 25 c0 -5 -7 -4 -15 3 -8 7
-15 20 -15 29 1 13 3 13 15 -3 8 -11 15 -24 15 -29z m-5391 -112 c0 -5 -4 -3
-9 5 -5 8 -9 22 -9 30 0 16 17 -16 18 -35z m938 3 c-3 -8 -6 -5 -6 6 -1 11 2
17 5 13 3 -3 4 -12 1 -19z m0 -70 c-3 -7 -5 -2 -5 12 0 14 2 19 5 13 2 -7 2
-19 0 -25z m110 0 c-3 -7 -5 -2 -5 12 0 14 2 19 5 13 2 -7 2 -19 0 -25z m3647
-10 c-25 -49 -131 -206 -178 -263 -111 -136 -178 -204 -224 -223 -136 -59
-345 -49 -465 21 -112 66 -167 169 -175 333 -6 139 11 170 27 48 17 -127 31
-195 47 -225 19 -37 80 -83 161 -122 65 -31 73 -32 193 -32 114 0 130 2 181
26 93 44 190 144 383 393 32 42 61 76 63 76 2 0 -4 -15 -13 -32z m-4049 -28
c-4 -12 -9 -19 -12 -17 -3 3 -2 15 2 27 4 12 9 19 12 17 3 -3 2 -15 -2 -27z
m412 -32 c-2 -13 -4 -5 -4 17 -1 22 1 32 4 23 2 -10 2 -28 0 -40z m3041 30
c-5 -16 -48 -24 -48 -9 0 8 17 16 43 20 5 0 7 -5 5 -11z m2192 -118 c27 0 80
39 74 53 -3 9 3 17 16 20 13 3 23 0 26 -8 13 -33 -4 -49 -90 -87 -49 -21 -90
-37 -91 -36 -32 44 -65 99 -65 108 0 6 5 21 11 33 11 20 14 19 58 -31 25 -29
53 -52 61 -52z m-598 -13 c6 -75 -8 -60 -17 18 -5 40 -4 57 3 50 5 -5 12 -36
14 -68z m-5472 -33 c30 -48 31 -76 3 -52 -24 20 -54 98 -38 98 3 0 19 -21 35
-46z m1095 -14 c-15 -21 -34 -41 -42 -44 -11 -5 -14 -18 -12 -50 4 -46 -14
-55 -25 -13 -13 49 -6 66 34 93 22 15 40 32 40 38 0 18 24 39 28 26 2 -6 -8
-28 -23 -50z m3532 20 c14 -11 34 -20 44 -20 63 0 -47 -69 -112 -70 -68 -2
-118 5 -130 17 -17 17 8 56 29 48 51 -20 69 -17 93 14 29 36 42 38 76 11z
m-4757 -6 c0 -8 -19 -13 -24 -6 -3 5 1 9 9 9 8 0 15 -2 15 -3z m8 -28 c-7 -8
-15 -12 -17 -11 -5 6 10 25 20 25 5 0 4 -6 -3 -14z m6355 -18 c61 -32 62 -127
2 -255 -60 -131 -85 -115 -134 86 -34 138 -32 153 22 177 32 13 75 11 110 -8z
m-6333 2 c0 -5 -5 -10 -11 -10 -5 0 -7 5 -4 10 3 6 8 10 11 10 2 0 4 -4 4 -10z
m6088 -29 c55 -44 86 -108 71 -149 -11 -29 -30 -28 -71 5 -42 35 -49 46 -69
108 -28 86 -8 96 69 36z m-3838 9 c0 -5 -5 -10 -11 -10 -5 0 -7 5 -4 10 3 6 8
10 11 10 2 0 4 -4 4 -10z m-2015 -34 c15 -12 16 -15 5 -16 -19 0 -60 28 -60
41 0 11 21 1 55 -25z m-118 -21 c48 -26 63 -40 63 -62 0 -8 -10 -9 -37 -1 -54
14 -153 59 -153 69 0 5 6 6 13 3 7 -2 24 0 38 5 13 5 25 10 26 10 1 1 23 -10
50 -24z m5483 -80 c0 -36 -3 -46 -10 -35 -5 8 -10 38 -10 65 0 36 3 46 10 35
5 -8 10 -37 10 -65z m-5367 31 c10 -8 15 -20 11 -30 -8 -21 -20 -20 -28 2 -3
9 -9 23 -12 30 -7 16 6 15 29 -2z m1997 4 c12 -8 12 -10 -5 -10 -11 0 -27 5
-35 10 -12 8 -12 10 5 10 11 0 27 -5 35 -10z m4198 -25 c-3 -3 -9 2 -12 12 -6
14 -5 15 5 6 7 -7 10 -15 7 -18z m-1028 -69 c-7 -7 -10 6 -9 40 l1 49 9 -39
c6 -26 6 -43 -1 -50z m-3174 45 c-3 -5 -15 -7 -26 -4 -28 7 -25 13 6 13 14 0
23 -4 20 -9z m-26 -41 c0 -5 -7 -10 -15 -10 -18 0 -69 -87 -85 -146 -10 -36
-15 -42 -29 -34 -44 25 -44 26 -24 56 11 16 37 55 58 87 31 47 42 57 66 57 16
0 29 -4 29 -10z m150 -38 c0 -15 -2 -15 -10 -2 -13 20 -13 33 0 25 6 -3 10
-14 10 -23z m3769 12 c27 -16 103 -112 109 -138 2 -7 -3 -18 -10 -23 -16 -13
-160 -33 -235 -33 -55 0 -123 21 -123 39 0 15 98 118 133 140 18 11 45 18 60
17 15 -2 27 1 27 5 0 13 8 11 39 -7z m-3859 -72 c11 -33 21 -44 49 -53 40 -14
28 -24 -37 -35 -40 -6 -42 -5 -42 18 0 14 -6 44 -14 66 -8 22 -12 43 -8 46 15
16 38 -3 52 -42z m3305 -48 c-35 -28 -45 -30 -45 -9 0 16 60 48 70 38 3 -3 -8
-16 -25 -29z m-3665 -28 c34 -12 32 -13 -55 -19 -92 -6 -130 4 -84 22 33 13
97 12 139 -3z m4529 -37 c88 -41 105 -59 137 -140 24 -62 26 -72 14 -97 -12
-24 -14 -25 -18 -7 -2 11 -15 32 -28 46 -13 14 -21 29 -17 33 4 4 -1 4 -11 0
-14 -5 -17 -4 -12 5 6 9 3 9 -13 -1 -23 -14 -29 -30 -8 -22 8 3 18 -6 25 -21
8 -17 17 -23 25 -19 6 4 9 4 5 -1 -4 -4 -3 -14 3 -22 14 -16 -9 -18 -64 -2
-49 13 -55 31 -23 70 22 26 26 40 24 77 -3 39 -7 47 -38 64 l-35 20 30 -6 30
-6 -28 15 c-23 13 -37 14 -85 4 -115 -23 -128 -24 -177 -19 -41 4 -46 6 -25
12 14 4 35 8 46 8 12 0 28 7 35 16 35 43 108 40 208 -7z m-2389 1 c-6 -12 -14
-19 -17 -17 -2 3 1 15 7 27 6 12 14 19 17 17 2 -3 -1 -15 -7 -27z m1882 -31
c23 -6 61 -9 84 -7 25 2 39 -1 34 -6 -14 -14 -142 -19 -172 -7 -17 6 -28 18
-28 29 0 27 10 33 27 17 7 -8 32 -19 55 -26z m-1361 -6 c13 -16 12 -17 -3 -4
-10 7 -18 15 -18 17 0 8 8 3 21 -13z m1794 -12 c-6 -11 -149 -56 -207 -67 -30
-5 -37 -3 -42 14 -11 33 -35 34 -94 1 l-56 -31 -19 23 -18 22 68 18 c78 20
123 23 173 10 24 -7 57 -6 105 3 92 17 97 18 90 7z m-1941 -64 c4 -16 11 -25
17 -21 7 4 9 -1 4 -15 -7 -22 9 -30 19 -8 3 6 4 -6 3 -28 -2 -36 -6 -42 -46
-63 l-44 -23 7 68 c6 62 28 146 32 126 1 -4 5 -21 8 -36z m-374 23 c0 -11 -32
-42 -74 -71 -17 -12 -46 -41 -65 -64 -37 -47 -49 -51 -166 -60 -58 -4 -64 -3
-32 5 21 5 51 17 67 25 16 8 42 15 59 15 16 0 33 5 36 11 12 18 -4 23 -32 10
l-28 -13 25 27 c14 15 59 49 100 76 72 46 110 60 110 39z m-1990 -39 c-5 -11
-15 -21 -22 -24 -7 -2 3 -9 22 -14 30 -8 36 -15 46 -54 7 -24 12 -34 13 -22 1
30 10 33 55 18 54 -19 71 -39 109 -130 19 -43 39 -81 45 -83 23 -7 30 43 19
131 -6 56 -7 91 -1 97 6 6 30 13 55 16 58 8 80 -6 153 -94 72 -89 126 -181
126 -214 0 -27 -1 -27 -47 -22 -189 23 -355 62 -493 116 -94 37 -110 55 -110
124 l0 41 -46 7 c-91 12 -94 10 -41 -38 35 -33 47 -51 47 -72 l-1 -29 -37 41
c-156 171 -157 174 -59 174 32 0 74 10 107 24 69 30 73 30 60 7z m4345 -100
c23 -21 56 -42 74 -46 38 -8 39 -18 6 -33 -31 -15 -92 7 -123 43 -19 22 -52
26 -52 6 0 -13 51 -61 82 -77 24 -12 28 -18 17 -25 -39 -25 -132 5 -183 59
-28 30 -28 30 -10 61 21 36 77 63 118 56 16 -3 48 -23 71 -44z m-482 -47 l38
-7 -22 -23 c-25 -27 -79 -33 -79 -10 0 8 -3 21 -6 30 -7 18 7 20 69 10z m280
-21 c2 -10 8 -26 12 -37 7 -16 5 -17 -16 -11 -43 13 -52 26 -33 46 21 24 30
24 37 2z m-48 -82 c55 -16 126 -35 158 -42 61 -15 70 -23 35 -33 -53 -14 -105
-4 -217 40 -148 59 -155 63 -111 64 19 0 80 -13 135 -29z m490 -24 c59 -61
105 -146 105 -195 0 -84 -80 -327 -101 -305 -3 5 -12 58 -18 118 -23 211 -46
273 -111 299 -22 9 -45 16 -50 16 -5 0 -21 5 -36 10 l-28 11 55 39 c47 35 92
56 123 59 6 1 33 -23 61 -52z m-5498 11 c-3 -8 -6 -5 -6 6 -1 11 2 17 5 13 3
-3 4 -12 1 -19z m-52 2 c3 -6 -1 -7 -9 -4 -18 7 -21 14 -7 14 6 0 13 -4 16
-10z m1102 -69 c43 -15 130 -38 193 -50 63 -12 131 -27 150 -32 19 -5 86 -14
149 -18 62 -5 118 -14 125 -21 15 -16 -184 -4 -332 21 -120 19 -353 91 -373
115 -17 21 -1 18 88 -15z m3447 -35 c54 -32 113 -96 96 -106 -7 -4 -2 -13 14
-24 32 -21 35 -42 4 -25 -13 7 -45 30 -72 51 -28 22 -75 52 -106 68 -50 25
-80 59 -80 90 0 12 86 -20 144 -54z m371 -6 c22 -14 88 -50 147 -79 l108 -54
-36 -19 c-38 -20 -83 -17 -54 3 12 9 12 10 -3 5 -18 -6 -146 53 -181 83 -16
14 -56 82 -56 95 0 9 33 -6 75 -34z m-2537 -49 c8 -5 -15 -10 -60 -14 -40 -4
-87 -11 -103 -16 -17 -5 -43 -12 -59 -16 l-30 -6 29 -23 29 -23 -35 5 c-19 2
-44 13 -56 24 -12 11 -37 21 -57 23 -19 2 -43 8 -53 14 -14 8 -6 11 37 11 30
1 84 7 120 14 74 15 219 20 238 7z m-1767 -72 c4 -7 12 -8 19 -4 8 5 11 4 7
-1 -3 -6 7 -15 23 -22 37 -17 53 -59 34 -93 -7 -13 -13 -31 -14 -40 0 -22 -44
-43 -74 -35 -19 5 -26 3 -26 -9 0 -8 -5 -15 -11 -15 -5 0 -8 4 -4 9 3 5 -4 12
-15 16 -20 6 -89 58 -128 96 -12 12 -25 20 -28 16 -9 -9 -32 16 -27 30 3 8 -3
10 -18 6 -15 -4 -20 -3 -15 5 9 15 -6 16 -21 1 -8 -8 -23 -2 -53 20 -32 23
-38 31 -24 31 11 0 24 -4 30 -10 6 -6 32 -5 74 5 74 17 259 12 271 -6z m3679
-4 c-5 -13 -22 -43 -37 -67 -19 -31 -28 -38 -31 -26 -3 18 18 57 52 96 25 28
28 28 16 -3z m-2423 -34 c65 -16 137 -32 161 -36 72 -11 38 -22 -60 -18 -166
5 -356 42 -384 75 l-19 21 92 -6 c51 -4 145 -20 210 -36z m3118 -21 c25 -33
43 -60 38 -60 -12 1 -101 120 -89 120 3 0 26 -27 51 -60z m-2011 -12 c-16 -12
-31 -25 -34 -28 -3 -3 -21 -16 -40 -29 l-35 -24 30 29 c42 41 86 74 98 74 5 0
-3 -10 -19 -22z m172 -83 c8 -13 14 -32 11 -42 -4 -15 -5 -15 -6 3 0 11 -10
30 -21 42 -12 12 -16 22 -11 22 6 0 18 -11 27 -25z m-286 -9 c0 -2 -8 -10 -17
-17 -16 -13 -17 -12 -4 4 13 16 21 21 21 13z m-2227 -53 c-7 -2 -19 -2 -25 0
-7 3 -2 5 12 5 14 0 19 -2 13 -5z m179 -18 c17 -14 56 -33 89 -42 62 -17 69
-33 15 -33 -75 0 -166 50 -153 85 8 20 14 19 49 -10z m398 -51 c0 -9 12 -14
35 -14 28 0 33 -3 28 -17 -5 -12 -2 -15 10 -10 12 4 14 2 10 -10 -3 -8 0 -19
8 -24 12 -8 11 -11 -3 -20 -10 -5 -18 -17 -18 -24 0 -10 -10 -15 -29 -15 -17
0 -33 -4 -36 -10 -3 -5 -13 -10 -21 -10 -9 0 -12 5 -8 11 5 8 -1 10 -18 6 -15
-4 -41 -1 -61 8 -19 8 -37 12 -40 8 -4 -3 -23 7 -42 22 l-37 27 52 35 c28 19
58 32 66 29 7 -3 13 -2 13 2 -3 16 3 19 46 20 32 0 45 -4 45 -14z m891 -118
c-8 -10 -8 -15 -1 -18 12 -4 -16 -48 -30 -48 -20 0 -13 37 10 57 29 26 38 29
21 9z m1978 -312 c2 -2 -14 -4 -37 -4 -23 0 -42 4 -42 9 0 9 69 4 79 -5z
m-1554 -14 c-23 -25 -93 -47 -175 -54 -69 -7 -101 2 -78 21 21 17 169 52 222
52 48 1 49 1 31 -19z m1620 -30 c-19 -21 -51 -26 -74 -11 -24 15 -1 31 46 31
45 0 46 0 28 -20z m-260 -10 c85 -1 106 -3 91 -12 -28 -16 -342 -6 -359 12
-10 10 3 11 73 6 47 -3 135 -6 195 -6z m-427 -18 c19 -13 -207 -50 -338 -56
l-115 -5 85 15 c102 18 319 52 340 53 8 0 21 -3 28 -7z m-2450 -116 c53 -14
124 -32 157 -40 76 -21 283 -44 495 -56 91 -5 225 -14 298 -19 249 -19 668 21
890 85 52 15 95 12 76 -5 -17 -16 -119 -49 -219 -71 -166 -36 -317 -50 -530
-50 -332 0 -989 54 -1165 95 -66 16 -183 57 -210 75 -30 20 111 10 208 -14z"/>
<path d="M4065 8290 c-3 -5 3 -10 15 -10 12 0 18 5 15 10 -3 6 -10 10 -15 10
-5 0 -12 -4 -15 -10z"/>
<path d="M4268 8293 c7 -3 16 -2 19 1 4 3 -2 6 -13 5 -11 0 -14 -3 -6 -6z"/>
<path d="M4014 8268 c-32 -8 -72 -44 -61 -54 3 -3 21 -1 41 6 60 20 79 64 20
48z"/>
<path d="M2992 8364 c1 -9 9 -19 16 -22 9 -3 13 2 10 14 -1 9 -9 19 -16 22 -9
3 -13 -2 -10 -14z"/>
<path d="M2167 8052 c-10 -10 -17 -31 -17 -46 0 -39 -36 -103 -68 -120 -26
-15 -26 -15 -4 -16 31 0 78 34 97 71 16 29 27 129 15 129 -4 0 -14 -8 -23 -18z"/>
<path d="M2041 7904 c0 -11 3 -14 6 -6 3 7 2 16 -1 19 -3 4 -6 -2 -5 -13z"/>
<path d="M1997 7856 c-3 -8 -3 -17 0 -20 7 -7 33 13 33 25 0 15 -27 10 -33 -5z"/>
<path d="M1902 7768 c-7 -7 -12 -16 -12 -21 0 -5 7 -1 16 8 9 9 14 18 12 20
-2 3 -10 -1 -16 -7z"/>
<path d="M2740 7993 c24 -8 69 -31 98 -50 61 -38 78 -39 33 0 -32 27 -129 67
-159 67 -9 -1 3 -8 28 -17z"/>
<path d="M6388 7743 c6 -2 18 -2 25 0 6 3 1 5 -13 5 -14 0 -19 -2 -12 -5z"/>
<path d="M2070 7240 c0 -5 5 -10 11 -10 5 0 7 5 4 10 -3 6 -8 10 -11 10 -2 0
-4 -4 -4 -10z"/>
<path d="M7115 7020 c-3 -5 -1 -10 4 -10 6 0 11 5 11 10 0 6 -2 10 -4 10 -3 0
-8 -4 -11 -10z"/>
<path d="M6900 7119 c0 -5 5 -7 10 -4 6 3 10 8 10 11 0 2 -4 4 -10 4 -5 0 -10
-5 -10 -11z"/>
<path d="M3179 6373 c-8 -9 -38 -31 -66 -50 -29 -18 -53 -36 -53 -38 0 -13 21
-1 88 50 40 30 67 55 59 55 -8 0 -21 -7 -28 -17z"/>
<path d="M7521 4994 c0 -11 3 -14 6 -6 3 7 2 16 -1 19 -3 4 -6 -2 -5 -13z"/>
<path d="M6296 4711 c-8 -12 24 -38 57 -46 31 -8 34 1 8 33 -19 22 -55 30 -65
13z"/>
<path d="M7190 4726 c0 -2 7 -9 15 -16 12 -10 15 -10 15 4 0 9 -7 16 -15 16
-8 0 -15 -2 -15 -4z"/>
<path d="M4760 4679 l-25 -21 28 16 c15 9 33 14 39 10 7 -4 8 -3 4 4 -10 16
-17 15 -46 -9z"/>
<path d="M4695 4460 c-3 -5 1 -10 10 -10 9 0 13 5 10 10 -3 6 -8 10 -10 10 -2
0 -7 -4 -10 -10z"/>
<path d="M3684 3877 c-11 -18 -28 -43 -37 -57 -16 -25 -16 -26 4 -26 12 0 18
5 14 14 -6 15 7 43 31 66 8 9 14 20 12 26 -2 5 -12 -5 -24 -23z"/>
<path d="M3535 3670 c-3 -5 -1 -10 4 -10 6 0 11 5 11 10 0 6 -2 10 -4 10 -3 0
-8 -4 -11 -10z"/>
<path d="M3390 2942 c0 -14 8 -18 35 -18 38 0 48 11 13 13 -13 1 -24 7 -26 13
-6 17 -22 11 -22 -8z"/>
<path d="M3420 2887 c0 -2 9 -10 20 -20 19 -16 20 -16 20 1 0 11 -8 18 -20 19
-11 1 -20 1 -20 0z"/>
<path d="M3432 2568 c11 -10 14 -23 11 -43 -7 -36 2 -31 11 7 5 22 2 29 -16
38 -20 10 -21 9 -6 -2z"/>
<path d="M3360 2542 c0 -5 7 -9 15 -9 8 0 12 4 9 9 -3 4 -9 8 -15 8 -5 0 -9
-4 -9 -8z"/>
<path d="M3415 2480 c-3 -5 -2 -10 4 -10 5 0 13 5 16 10 3 6 2 10 -4 10 -5 0
-13 -4 -16 -10z"/>
<path d="M3390 2475 c0 -5 5 -17 10 -25 5 -8 10 -10 10 -5 0 6 -5 17 -10 25
-5 8 -10 11 -10 5z"/>
<path d="M3421 2423 c-1 -27 15 -39 23 -17 3 8 2 12 -3 9 -5 -3 -12 3 -14 12
-4 14 -5 13 -6 -4z"/>
<path d="M3481 2404 c0 -11 3 -14 6 -6 3 7 2 16 -1 19 -3 4 -6 -2 -5 -13z"/>
<path d="M4340 3958 c0 -4 10 -10 23 -13 28 -6 67 -3 61 6 -6 10 -84 16 -84 7z"/>
<path d="M5126 2542 c-6 -10 79 -84 128 -111 45 -26 48 -10 4 20 -18 12 -50
40 -70 61 -36 38 -52 45 -62 30z"/>
<path d="M5250 2371 c-13 -26 -13 -31 4 -25 8 3 16 -2 19 -13 3 -10 5 -1 6 20
1 40 -12 49 -29 18z"/>
<path d="M6652 3528 c-19 -19 -14 -30 8 -18 11 6 20 15 20 20 0 14 -14 12 -28
-2z"/>
<path d="M6618 3483 c6 -2 18 -2 25 0 6 3 1 5 -13 5 -14 0 -19 -2 -12 -5z"/>
<path d="M6410 3350 c0 -5 5 -10 11 -10 5 0 7 5 4 10 -3 6 -8 10 -11 10 -2 0
-4 -4 -4 -10z"/>
<path d="M6458 3333 c7 -3 16 -2 19 1 4 3 -2 6 -13 5 -11 0 -14 -3 -6 -6z"/>
<path d="M2740 2860 c0 -5 5 -10 11 -10 5 0 7 5 4 10 -3 6 -8 10 -11 10 -2 0
-4 -4 -4 -10z"/>
<path d="M8676 1983 c-11 -11 -6 -23 8 -23 8 0 17 4 20 9 7 10 -19 23 -28 14z"/>
<path d="M4480 4950 c0 -5 22 -7 53 -3 71 8 72 13 4 13 -31 0 -57 -4 -57 -10z"/>
<path d="M8963 1631 c1 -38 5 -67 10 -64 4 2 7 12 7 21 1 15 3 14 16 -3 19
-25 14 -105 -16 -215 -35 -133 -34 -129 -15 -95 9 17 30 69 46 116 38 112 38
179 3 254 -37 77 -53 73 -51 -14z"/>
</g>
</svg>
